<svg xmlns="http://www.w3.org/2000/svg" viewBox="0 0 4368 2256" fill="#1A223E">
<path d="M0 0 C0.4328 -0.0016 0.4328 -0.0016 2.623 -0.0097 C5.5316 -0.018 8.4399 -0.0121 11.3485 -0.0062 C13.4516 -0.0092 15.5547 -0.0131 17.6578 -0.0178 C23.4437 -0.0281 29.2294 -0.0259 35.0152 -0.0216 C41.2526 -0.0192 47.4899 -0.0282 53.7272 -0.0357 C65.9493 -0.0484 78.1714 -0.0502 90.3935 -0.0479 C100.3256 -0.046 110.2577 -0.0478 120.1898 -0.0521 C121.6164 -0.0527 123.0429 -0.0533 124.4695 -0.0539 C126.6192 -0.0548 128.7689 -0.0557 130.9185 -0.0566 C150.9073 -0.0651 170.896 -0.0694 190.8847 -0.0652 C191.6384 -0.0651 192.392 -0.0649 193.1685 -0.0647 C196.9885 -0.0639 200.8084 -0.0631 204.6283 -0.0622 C205.3869 -0.0621 206.1456 -0.0619 206.9272 -0.0617 C208.4614 -0.0614 209.9956 -0.061 211.5298 -0.0607 C235.4031 -0.0553 259.2764 -0.0632 283.1498 -0.0817 C309.9678 -0.1024 336.7857 -0.1132 363.6037 -0.1091 C366.4628 -0.1087 369.3219 -0.1084 372.181 -0.108 C372.533 -0.108 372.533 -0.108 374.3143 -0.1078 C384.9451 -0.1066 395.576 -0.1132 406.2068 -0.1238 C418.2962 -0.1359 430.3855 -0.1372 442.4749 -0.1251 C448.6449 -0.1192 454.8148 -0.1181 460.9848 -0.1301 C466.6313 -0.1409 472.2777 -0.1379 477.9242 -0.1238 C479.9685 -0.1211 482.0129 -0.1236 484.0572 -0.1315 C486.834 -0.1416 489.61 -0.1332 492.3867 -0.1203 C493.1822 -0.1276 493.9777 -0.1349 494.7973 -0.1424 C501.1612 -0.0806 506.9718 0.9689 511.6942 5.567 C514.5382 10.2705 515.5691 14.5914 515.571 20.056 C515.5763 21.1998 515.5816 22.3436 515.587 23.5221 C515.5826 24.7715 515.5782 26.0209 515.5737 27.3081 C515.5761 28.66 515.5793 30.0119 515.5834 31.3637 C515.592 35.0893 515.5882 38.8148 515.5823 42.5404 C515.5782 46.5896 515.5856 50.6387 515.5915 54.6878 C515.6003 61.7881 515.6016 68.8883 515.598 75.9886 C515.5927 86.5469 515.5988 97.1052 515.6071 107.6635 C515.6223 127.616 515.624 147.5685 515.6215 167.521 C515.6197 182.926 515.6215 198.331 515.6258 213.736 C515.6264 215.9475 515.627 218.1591 515.6276 220.3706 C515.6285 223.703 515.6294 227.0353 515.6303 230.3677 C515.6387 261.3593 515.6431 292.3508 515.6389 323.3424 C515.6387 324.5113 515.6386 325.6801 515.6384 326.8844 C515.6376 332.8089 515.6368 338.7335 515.6359 344.658 C515.6357 345.8347 515.6356 347.0114 515.6354 348.2237 C515.635 350.6033 515.6347 352.9828 515.6343 355.3623 C515.629 392.3936 515.6369 429.4249 515.6554 466.4561 C515.6761 508.0407 515.6868 549.6252 515.6828 591.2098 C515.6824 595.6416 515.682 600.0735 515.6817 604.5053 C515.6816 605.5966 515.6815 606.6878 515.6814 607.8122 C515.6803 624.3039 515.6869 640.7956 515.6975 657.2872 C515.7096 676.0374 515.7112 694.7875 515.6987 713.5377 C515.6921 724.0362 515.6938 734.5347 515.7073 745.0332 C515.7155 752.0412 515.7129 759.0492 515.7013 766.0572 C515.6951 770.0533 515.6936 774.0491 515.7052 778.0452 C515.7157 781.6804 515.7124 785.3154 515.6981 788.9507 C515.6941 790.8741 515.7048 792.7976 515.7161 794.721 C515.6687 802.2302 515.5203 808.9668 510.0067 814.6295 C502.5646 819.1293 494.8689 818.6226 486.4364 818.733 C479.5851 818.9099 473.7639 819.9335 467.3192 822.2545 C459.1696 825.1192 451.9976 826.5834 443.4156 826.8983 C437.5802 827.1435 432.7649 828.2647 427.3192 830.2545 C420.6878 832.4995 414.3497 834.3649 407.3817 835.192 C400.891 835.9915 395.3415 837.7962 389.2801 840.1334 C384.8373 841.8156 381.2129 842.3666 376.4315 842.5448 C368.927 842.8289 362.4103 843.6635 355.3192 846.2545 C348.6878 848.4995 342.3497 850.3649 335.3817 851.192 C330.4319 851.8032 326.2181 852.8903 321.5692 854.692 C316.1717 856.7689 311.1299 857.8935 305.4442 858.692 C297.139 859.8836 289.9068 862.4152 282.1581 865.5421 C278.3305 867.0249 274.3934 868.1543 270.4598 869.317 C268.3353 869.9512 266.2205 870.6189 264.1161 871.317 C258.5568 873.1432 253.3278 874.4695 247.5067 875.1295 C240.5618 875.9937 234.6427 878.176 228.1942 880.7428 C223.7242 882.5204 219.1609 883.8974 214.5536 885.274 C209.2024 886.8962 203.9125 888.7019 198.6131 890.4845 C194.0387 892.02 189.4597 893.5421 184.8817 895.067 C182.7997 895.7609 180.7176 896.4549 178.6356 897.149 C166.284 901.2662 166.284 901.2662 163.2963 902.262 C161.3141 902.9228 159.332 903.5838 157.35 904.245 C152.1889 905.9663 147.0266 907.6837 141.8622 909.3951 C140.798 909.7483 139.7339 910.1015 138.6376 910.4654 C136.625 911.1334 134.612 911.8001 132.5985 912.4654 C122.8851 915.6919 113.471 919.0257 104.3192 923.6295 C97.9744 926.7387 91.7292 929.2289 84.9442 931.192 C76.8768 933.5296 69.6315 936.8533 62.1271 940.5977 C56.6979 943.2585 51.4583 945.2436 45.6317 946.817 C34.0957 949.9956 23.6317 955.8585 13.0587 961.3387 C12.3376 961.7105 11.6165 962.0822 10.8735 962.4652 C9.516 963.1669 8.1616 963.8745 6.8109 964.5892 C-0.3584 968.3043 -6.696 970.2807 -14.6808 968.2545 C-18.8468 965.9903 -20.4877 963.3387 -22.0625 958.9088 C-23.4551 952.9306 -23.0882 946.6886 -23.0583 940.5809 C-23.0615 938.9675 -23.0659 937.354 -23.0715 935.7406 C-23.0832 931.2981 -23.0762 926.8558 -23.0662 922.4132 C-23.0586 917.5835 -23.0684 912.7538 -23.0759 907.924 C-23.0868 899.4563 -23.0864 890.9886 -23.0788 882.5209 C-23.0675 869.9292 -23.0732 857.3376 -23.0824 844.7459 C-23.0982 822.2593 -23.0968 799.7727 -23.0882 777.286 C-23.0806 757.6079 -23.0787 737.9297 -23.0822 718.2515 C-23.0825 716.9473 -23.0827 715.6431 -23.0829 714.2993 C-23.0839 709.0053 -23.0848 703.7113 -23.0858 698.4173 C-23.0886 683.6181 -23.0903 668.8189 -23.0912 654.0197 C-23.0912 653.3457 -23.0913 652.6718 -23.0913 651.9774 C-23.0925 630.5007 -23.0891 609.024 -23.0826 587.5473 C-23.0825 587.199 -23.0825 587.199 -23.082 585.4362 C-23.0786 574.1229 -23.0749 562.8097 -23.0712 551.4964 C-23.0567 506.6257 -23.0573 461.755 -23.0719 416.8844 C-23.0756 405.5768 -23.0792 394.2692 -23.0826 382.9617 C-23.0828 382.2654 -23.0831 381.5692 -23.0833 380.8519 C-23.0897 359.3977 -23.0925 337.9435 -23.0912 316.4893 C-23.0911 315.8158 -23.0911 315.1424 -23.0911 314.4486 C-23.0901 299.0027 -23.088 283.5568 -23.0851 268.1109 C-23.0841 262.8264 -23.0832 257.5419 -23.0822 252.2574 C-23.082 250.9562 -23.0818 249.655 -23.0815 248.3144 C-23.0781 228.6464 -23.0821 208.9784 -23.0897 189.3104 C-23.0983 166.9517 -23.0961 144.5931 -23.0798 122.2344 C-23.071 109.7141 -23.0705 97.1938 -23.0818 84.6734 C-23.0885 76.3178 -23.0844 67.9622 -23.0713 59.6065 C-23.0641 54.8408 -23.0617 50.0753 -23.0725 45.3096 C-23.0822 40.9759 -23.0781 36.6426 -23.0629 32.309 C-23.0599 30.7492 -23.0619 29.1895 -23.0696 27.6298 C-23.1505 9.8179 -23.1505 9.8179 -17.3683 3.8795 C-11.6409 0.4164 -6.5066 -0.0357 0 0 Z " fill="#1A223E" transform="translate(501.68079948425293,46.745524406433105)"/>
<path d="M0 0 C0.426 -0.0016 0.426 -0.0016 2.5821 -0.0097 C5.4447 -0.018 8.3071 -0.0121 11.1697 -0.0062 C13.2398 -0.0092 15.3099 -0.0131 17.3801 -0.0178 C23.0747 -0.0281 28.7692 -0.0259 34.4638 -0.0216 C40.603 -0.0192 46.7422 -0.0282 52.8813 -0.0357 C64.9109 -0.0484 76.9405 -0.0502 88.9701 -0.0479 C98.7458 -0.046 108.5215 -0.0478 118.2973 -0.0521 C119.7014 -0.0527 121.1056 -0.0533 122.5097 -0.0539 C124.6256 -0.0548 126.7415 -0.0557 128.8574 -0.0566 C148.5317 -0.0651 168.2061 -0.0694 187.8804 -0.0652 C188.6222 -0.0651 189.364 -0.0649 190.1283 -0.0647 C193.8881 -0.0639 197.6479 -0.0631 201.4077 -0.0622 C202.1544 -0.0621 202.9011 -0.0619 203.6704 -0.0617 C205.1805 -0.0614 206.6905 -0.061 208.2005 -0.0607 C231.6979 -0.0553 255.1953 -0.0632 278.6927 -0.0817 C305.0888 -0.1024 331.4848 -0.1132 357.8809 -0.1091 C360.6951 -0.1087 363.5092 -0.1084 366.3234 -0.108 C367.0163 -0.1079 367.7092 -0.1079 368.4232 -0.1078 C378.8866 -0.1066 389.3499 -0.1132 399.8133 -0.1238 C411.7124 -0.1359 423.6114 -0.1372 435.5104 -0.1251 C441.5833 -0.1192 447.656 -0.1181 453.7288 -0.1301 C459.2865 -0.1409 464.844 -0.1379 470.4016 -0.1238 C472.4137 -0.1211 474.4258 -0.1236 476.4378 -0.1315 C479.171 -0.1416 481.9035 -0.1332 484.6366 -0.1203 C485.4192 -0.1276 486.2019 -0.1349 487.0083 -0.1424 C493.337 -0.08 499.1268 0.9981 503.8191 5.567 C507.7238 12.0246 507.7295 17.9734 507.6986 25.3091 C507.7002 25.8702 507.7002 25.8702 507.7083 28.7098 C507.7167 32.4913 507.7107 36.2727 507.7048 40.0542 C507.7067 42.7843 507.7117 45.5144 507.7164 48.2445 C507.7252 54.1912 507.7265 60.1379 507.7229 66.0846 C507.7176 74.9275 507.7237 83.7704 507.732 92.6134 C507.7473 109.3247 507.749 126.036 507.7465 142.7474 C507.7447 155.6505 507.7464 168.5536 507.7507 181.4567 C507.7513 183.3094 507.7519 185.1621 507.7525 187.0148 C507.7534 189.8065 507.7543 192.5982 507.7552 195.3899 C507.7637 221.3516 507.768 247.3133 507.7638 273.275 C507.7637 274.2541 507.7635 275.2331 507.7634 276.2418 C507.7626 281.2043 507.7617 286.1667 507.7609 291.1291 C507.7607 292.1147 507.7605 293.1003 507.7603 294.1157 C507.76 296.1088 507.7596 298.1019 507.7593 300.095 C507.7539 331.1112 507.7619 362.1274 507.7803 393.1436 C507.801 427.9778 507.8118 462.8119 507.8077 497.646 C507.8074 501.3588 507.807 505.0717 507.8066 508.7846 C507.8066 509.6988 507.8065 510.6131 507.8064 511.555 C507.8052 525.3674 507.8119 539.1799 507.8225 552.9923 C507.8345 568.6975 507.8361 584.4027 507.8237 600.1079 C507.817 608.9002 507.8187 617.6923 507.8323 626.4845 C507.8405 632.3551 507.8378 638.2257 507.8263 644.0963 C507.82 647.4428 507.8201 650.7889 507.8301 654.1354 C507.8402 657.7398 507.8319 661.3437 507.8189 664.9482 C507.8262 665.9875 507.8335 667.0268 507.841 668.0977 C507.7893 674.9795 507.2106 681.1422 502.4441 686.5045 C497.9986 689.0977 493.3063 690.6099 488.4441 692.2545 C485.964 693.1477 483.4849 694.0436 481.0066 694.942 C471.5252 698.3638 471.5252 698.3638 466.3851 698.4122 C465.9909 698.4173 465.9909 698.4173 463.9964 698.4433 C463.1515 698.4506 462.3067 698.4579 461.4363 698.4654 C459.6264 698.4935 457.8165 698.5222 456.0066 698.5514 C453.1697 698.5924 450.333 698.6293 447.4959 698.6558 C444.7465 698.6837 441.9979 698.7296 439.2488 698.7779 C438.8325 698.7795 438.8325 698.7795 436.7256 698.7878 C429.4871 698.9363 423.2083 700.7906 416.4917 703.4027 C405.3379 707.6619 393.5188 706.823 381.7566 706.817 C378.4515 706.8206 375.1469 706.8303 371.8419 706.8577 C369.7995 706.8743 367.7569 706.8776 365.7145 706.8647 C358.0257 706.9211 351.6224 708.6295 344.4917 711.4027 C333.3379 715.6619 321.5188 714.823 309.7566 714.817 C306.4515 714.8206 303.1469 714.8303 299.8419 714.8577 C297.7995 714.8743 295.7569 714.8776 293.7145 714.8647 C286.0257 714.9211 279.6224 716.6295 272.4917 719.4027 C261.3379 723.6619 249.5188 722.823 237.7566 722.817 C234.4515 722.8206 231.1469 722.8303 227.8419 722.8577 C225.7995 722.8743 223.7569 722.8776 221.7145 722.8647 C214.0257 722.9211 207.6224 724.6295 200.4917 727.4027 C189.3379 731.6619 177.5188 730.823 165.7566 730.817 C162.4515 730.8206 159.1469 730.8303 155.8419 730.8577 C153.7995 730.8743 151.7569 730.8776 149.7145 730.8647 C141.9676 730.9216 135.6589 732.772 128.4001 735.3252 C120.4403 737.988 113.4255 738.818 105.0574 738.7584 C103.8344 738.7678 102.6113 738.7772 101.3512 738.7869 C97.4862 738.8153 93.6218 738.8187 89.7566 738.817 C85.8809 738.8206 82.0056 738.8303 78.13 738.8577 C75.7314 738.8744 73.3328 738.8775 70.9342 738.8647 C62.7176 738.9162 56.0813 740.4628 48.461 743.4071 C38.4764 747.1983 28.3669 746.826 17.8223 746.721 C14.6209 746.6919 11.4211 746.7005 8.2195 746.7135 C6.1629 746.7072 4.1062 746.6988 2.0496 746.6881 C1.1036 746.691 0.1576 746.6939 -0.817 746.697 C-7.6475 746.6005 -13.8201 745.9183 -18.9309 740.942 C-22.9866 734.2345 -22.8399 727.9474 -22.8103 720.3253 C-22.8135 719.1085 -22.8167 717.8917 -22.8201 716.6381 C-22.8269 713.2533 -22.8248 709.8688 -22.819 706.4841 C-22.8148 702.8046 -22.8222 699.125 -22.8281 695.4455 C-22.8369 688.9941 -22.8382 682.5427 -22.8346 676.0914 C-22.8293 666.4979 -22.8354 656.9046 -22.8437 647.3111 C-22.859 629.1818 -22.8607 611.0525 -22.8582 592.9231 C-22.8564 578.9254 -22.8581 564.9277 -22.8624 550.93 C-22.863 548.9204 -22.8636 546.9107 -22.8642 544.901 C-22.8651 541.8727 -22.8661 538.8445 -22.867 535.8162 C-22.8754 507.654 -22.8797 479.4917 -22.8756 451.3295 C-22.8754 450.2674 -22.8752 449.2053 -22.8751 448.111 C-22.8743 442.7276 -22.8734 437.3443 -22.8726 431.9609 C-22.8724 430.8917 -22.8722 429.8226 -22.8721 428.721 C-22.8717 426.5588 -22.8714 424.3967 -22.871 422.2345 C-22.8657 388.5867 -22.8736 354.9389 -22.892 321.2911 C-22.9127 283.5037 -22.9235 245.7163 -22.9195 207.9288 C-22.9191 203.9014 -22.9187 199.874 -22.9184 195.8465 C-22.9183 194.8549 -22.9182 193.8632 -22.9181 192.8414 C-22.9169 177.8568 -22.9236 162.8722 -22.9342 147.8876 C-22.9462 130.8502 -22.9478 113.8129 -22.9354 96.7755 C-22.9287 87.2368 -22.9304 77.6981 -22.944 68.1594 C-22.9522 61.7912 -22.9496 55.423 -22.938 49.0547 C-22.9317 45.4241 -22.9302 41.7937 -22.9419 38.163 C-22.9543 34.2537 -22.9436 30.3447 -22.9306 26.4354 C-22.9379 25.3062 -22.9452 24.177 -22.9527 23.0136 C-22.9026 15.7832 -22.5391 9.3183 -17.2434 3.8795 C-11.6391 0.4908 -6.4351 -0.0359 0 0 Z " fill="#1A223E" transform="translate(1661.5558605194092,46.745524406433105)"/>
<path d="M0 0 C0.8386 -0.0032 1.6772 -0.0064 2.5412 -0.0097 C5.3578 -0.018 8.1743 -0.0121 10.9909 -0.0062 C13.0281 -0.0092 15.0652 -0.0131 17.1023 -0.0178 C22.7057 -0.0281 28.309 -0.0259 33.9124 -0.0216 C39.9534 -0.0192 45.9944 -0.0282 52.0354 -0.0357 C63.8725 -0.0484 75.7096 -0.0502 87.5467 -0.0479 C97.166 -0.046 106.7854 -0.0478 116.4047 -0.0521 C117.7865 -0.0527 119.1682 -0.0533 120.5499 -0.0539 C122.632 -0.0548 124.7141 -0.0557 126.7962 -0.0566 C146.1562 -0.0651 165.5162 -0.0694 184.8762 -0.0652 C185.6061 -0.0651 186.336 -0.0649 187.0881 -0.0647 C190.7877 -0.0639 194.4874 -0.0631 198.187 -0.0622 C198.9218 -0.0621 199.6566 -0.0619 200.4136 -0.0617 C201.8995 -0.0614 203.3854 -0.061 204.8713 -0.0607 C227.9927 -0.0553 251.1141 -0.0632 274.2356 -0.0817 C300.2098 -0.1024 326.1839 -0.1132 352.1581 -0.1091 C354.9273 -0.1087 357.6966 -0.1084 360.4658 -0.108 C360.8067 -0.108 360.8067 -0.108 362.532 -0.1078 C372.828 -0.1066 383.1239 -0.1132 393.4198 -0.1238 C405.1286 -0.1359 416.8373 -0.1372 428.546 -0.1251 C434.5216 -0.1192 440.4971 -0.1181 446.4727 -0.1301 C451.9416 -0.1409 457.4103 -0.1379 462.8791 -0.1238 C464.8589 -0.1211 466.8387 -0.1236 468.8184 -0.1315 C471.508 -0.1416 474.1969 -0.1332 476.8865 -0.1203 C477.6563 -0.1276 478.4261 -0.1349 479.2192 -0.1424 C485.5127 -0.0794 491.2819 1.0274 495.9441 5.567 C498.9322 10.5088 499.8191 14.9623 499.8263 20.6936 C499.8328 21.9772 499.8392 23.2607 499.8459 24.5832 C499.8429 26.0004 499.8398 27.4176 499.8365 28.8347 C499.8402 30.3459 499.8448 31.857 499.8502 33.3681 C499.8625 37.5177 499.8622 41.6673 499.8598 45.8169 C499.8594 50.2935 499.8705 54.7702 499.88 59.2468 C499.8966 68.0168 499.9021 76.7868 499.9032 85.5568 C499.9041 92.6866 499.9082 99.8164 499.9146 106.9462 C499.9322 127.1639 499.9414 147.3816 499.9399 167.5993 C499.9399 168.1443 499.9399 168.1443 499.9397 170.9022 C499.9396 171.9935 499.9395 173.0847 499.9394 174.2091 C499.9386 191.8905 499.9578 209.5718 499.986 227.2532 C500.0147 245.4116 500.0285 263.57 500.0268 281.7284 C500.0261 291.9216 500.0316 302.1147 500.0531 312.3079 C500.0714 320.9878 500.0757 329.6675 500.0621 338.3474 C500.0556 342.7741 500.0554 347.2005 500.0728 351.6272 C500.0886 355.6844 500.0857 359.7412 500.0682 363.7984 C500.0652 365.2614 500.0688 366.7245 500.08 368.1874 C500.1512 378.1715 499.0481 386.4481 493.8581 395.1099 C490.5571 398.2026 486.8532 400.3212 482.9441 402.567 C476.8357 406.1722 471.271 409.915 465.8425 414.5006 C463.4178 416.3712 460.978 417.7298 458.2566 419.1295 C453.8185 421.4205 449.9607 424.1464 446.0691 427.2545 C441.386 430.9924 436.6631 433.9297 431.3308 436.6529 C428.2201 438.4569 425.645 440.5797 422.8816 442.8795 C416.205 448.35 408.6883 451.9053 400.8496 455.4405 C395.7973 457.8045 391.4023 460.291 387.1248 463.896 C373.9463 474.7493 357.9559 481.6458 342.7665 489.1931 C338.4451 491.3435 334.1318 493.5097 329.817 495.6733 C322.5723 499.303 315.321 502.9192 308.0657 506.5277 C299.7331 510.6722 291.4123 514.8396 283.0973 519.0191 C275.9026 522.6348 268.7017 526.2376 261.4955 529.8303 C257.216 531.9639 252.9387 534.1014 248.6671 536.2507 C231.9439 544.6578 215.6877 552.7502 197.5411 557.6661 C193.0725 558.9994 188.984 561.1378 184.8816 563.317 C177.6244 566.9729 170.5303 569.6836 162.7324 571.9266 C156.5179 573.7847 150.8678 576.3647 145.0691 579.2545 C136.1509 583.6857 127.2501 586.858 117.7004 589.6251 C114.568 590.5501 111.4765 591.5864 108.3816 592.6295 C107.1879 593.0304 105.9942 593.4313 104.7644 593.8443 C104.1137 594.0633 103.4631 594.2823 102.7927 594.5079 C100.1751 595.3867 97.5558 596.2603 94.9363 597.1334 C93.9293 597.4691 92.9223 597.8048 91.8848 598.1507 C89.7966 598.8458 87.7079 599.5393 85.6186 600.2313 C80.9503 601.7798 76.2905 603.3408 71.6589 604.9967 C63.5104 607.8806 55.7489 609.8607 47.188 611.0743 C39.8263 612.1967 33.2973 614.7636 26.4255 617.5377 C22.5117 619.0489 18.4802 620.1911 14.4597 621.3795 C11.896 622.1555 9.3978 623.027 6.8816 623.942 C-0.4713 626.375 -7.1916 627.1229 -14.5208 624.2662 C-18.3035 622.2626 -19.8794 619.5493 -21.5127 615.715 C-22.7241 611.1496 -22.7074 606.9026 -22.6854 602.1993 C-22.687 601.6923 -22.687 601.6923 -22.6951 599.1261 C-22.7034 595.7121 -22.6975 592.2984 -22.6916 588.8844 C-22.6946 586.4183 -22.6985 583.9522 -22.7032 581.4861 C-22.7114 576.1162 -22.7133 570.7463 -22.7097 565.3764 C-22.7044 557.3911 -22.7105 549.4059 -22.7188 541.4206 C-22.734 526.3299 -22.7357 511.2391 -22.7333 496.1483 C-22.7314 484.4962 -22.7332 472.844 -22.7375 461.1919 C-22.7381 459.5186 -22.7387 457.8453 -22.7393 456.1721 C-22.7402 453.6507 -22.7411 451.1293 -22.742 448.6079 C-22.7505 425.1611 -22.7548 401.7144 -22.7506 378.2676 C-22.7505 377.3835 -22.7503 376.4993 -22.7501 375.5884 C-22.7493 371.107 -22.7485 366.6256 -22.7476 362.1443 C-22.7475 361.6993 -22.7475 361.6993 -22.7471 359.4472 C-22.7468 357.6473 -22.7464 355.8475 -22.7461 354.0476 C-22.7407 326.0389 -22.7486 298.0303 -22.7671 270.0216 C-22.7878 238.5627 -22.7985 207.1038 -22.7945 175.6449 C-22.7941 172.2915 -22.7938 168.9381 -22.7934 165.5847 C-22.7933 164.759 -22.7932 163.9333 -22.7932 163.0826 C-22.792 150.6097 -22.7986 138.1369 -22.8092 125.6641 C-22.8213 111.4813 -22.8229 97.2986 -22.8105 83.1159 C-22.8038 75.1768 -22.8055 67.2379 -22.819 59.2988 C-22.8282 53.375 -22.8218 47.4513 -22.8092 41.5275 C-22.8065 39.1278 -22.809 36.7281 -22.8169 34.3285 C-22.827 31.0725 -22.8187 27.8172 -22.8057 24.5613 C-22.813 23.6246 -22.8203 22.688 -22.8278 21.7229 C-22.7718 14.9812 -22.0254 8.9191 -17.1184 3.8795 C-11.5543 0.5151 -6.3906 -0.0363 0 0 Z " fill="#1A223E" transform="translate(2533.4309215545654,46.745524406433105)"/>
<path d="M0 0 C6.5813 3.9155 9.8585 9.8487 13.4988 16.3059 C16.484 21.4702 19.956 25.3955 24.4453 29.3633 C31.7119 36.8632 36.1279 45.8426 40.377 55.2617 C42.7879 60.3316 45.4956 64.7591 48.9892 69.1304 C56.9295 79.1257 62.5612 89.9512 68.207 101.3516 C69.2259 103.384 70.2458 105.4159 71.2665 107.4474 C73.3885 111.6797 75.4991 115.9175 77.6013 120.1597 C80.2665 125.5356 82.9601 130.8967 85.6627 136.2539 C87.7705 140.4402 89.8627 144.6343 91.9506 148.8306 C92.9365 150.8076 93.9269 152.7824 94.9225 154.7546 C100.9385 166.6973 105.7923 178.4965 109.5659 191.3352 C111.2372 196.9773 113.5854 202.1698 116.3125 207.375 C120.4781 215.4932 122.8188 222.4745 123.8125 231.625 C124.6937 238.2197 126.4902 243.8441 128.8789 250.0391 C130.8777 255.3182 131.1872 260.0596 131.2383 265.6836 C131.2464 266.5349 131.2544 267.3863 131.2627 268.2634 C131.2766 270.0681 131.2873 271.8728 131.2952 273.6775 C131.3066 275.5015 131.327 277.3254 131.3567 279.1492 C131.6706 298.4364 126.4033 312.0692 117.7932 329.1753 C116.3163 332.1175 114.8655 335.0715 113.416 338.0273 C112.4625 339.9383 111.5075 341.8485 110.5508 343.7578 C110.1286 344.6227 109.7063 345.4876 109.2713 346.3787 C103.775 357.1703 95.4812 365.8203 86.967 374.3076 C86.5404 374.7368 86.5404 374.7368 84.3812 376.9089 C82.073 379.2286 79.7603 381.5438 77.4451 383.8565 C75.5001 385.8004 73.5581 387.7474 71.616 389.6942 C67.0304 394.2908 62.4396 398.8822 57.8455 403.4702 C53.1305 408.1791 48.4248 412.8972 43.7235 417.6197 C39.6607 421.7002 35.5921 425.7748 31.5188 429.8448 C29.0974 432.2644 26.6781 434.6862 24.2647 437.1137 C21.571 439.8197 18.8679 442.5159 16.1624 445.21 C15.3802 445.9997 14.5981 446.7895 13.7923 447.6032 C7.0151 454.317 -0.3066 459.7646 -8.8047 464.125 C-16.4596 468.5118 -22.102 474.66 -28.125 481 C-36.8095 490.0829 -45.0346 498.2391 -56.5 503.8125 C-63.5505 507.7932 -68.8083 513.4816 -74.3301 519.3391 C-81.0626 526.406 -88.3626 531.7607 -97 536.3125 C-102.4155 539.3942 -106.3081 543.0876 -110.5781 547.582 C-115.972 552.9672 -122.4107 556.6962 -129 560.4375 C-132.993 562.7119 -136.5335 565.1208 -140.0625 568.0625 C-143.3445 570.7957 -146.5132 572.9259 -150.3125 574.875 C-154.7506 577.166 -158.6083 579.8919 -162.5 583 C-167.1675 586.7255 -171.8751 589.657 -177.1875 592.375 C-180.5272 594.3046 -183.4934 596.6004 -186.5 599 C-191.1832 602.7378 -195.906 605.6752 -201.2383 608.3984 C-204.349 610.2024 -206.9241 612.3252 -209.6875 614.625 C-216.3641 620.0955 -223.8808 623.6508 -231.7195 627.186 C-236.9385 629.6281 -241.5158 632.2945 -245.9807 635.9098 C-256.9689 644.7306 -269.2826 650.7231 -281.8516 656.957 C-284.2427 658.1553 -286.6333 659.3545 -289.0235 660.5546 C-294.0085 663.0543 -299 665.5407 -303.9956 668.0193 C-309.7107 670.8551 -315.4139 673.7137 -321.1114 676.5845 C-326.064 679.0792 -331.023 681.5609 -335.9872 684.0326 C-338.9253 685.4955 -341.8605 686.9636 -344.7914 688.4409 C-357.7779 694.9752 -370.5148 700.5934 -384.496 704.6411 C-389.8695 706.201 -394.755 708.4424 -399.6875 711.0625 C-406.9446 714.7185 -414.0388 717.4291 -421.8367 719.6721 C-428.0512 721.5302 -433.7013 724.1102 -439.5 727 C-448.4182 731.4312 -457.319 734.6036 -466.8687 737.3706 C-470.0011 738.2956 -473.0926 739.3319 -476.1875 740.375 C-477.3812 740.7759 -478.5748 741.1768 -479.8047 741.5898 C-480.13 741.6993 -480.13 741.6993 -481.7764 742.2534 C-484.394 743.1323 -487.0133 744.0059 -489.6328 744.8789 C-490.6398 745.2146 -491.6468 745.5503 -492.6843 745.8962 C-494.7725 746.5913 -496.8612 747.2848 -498.9504 747.9768 C-503.6188 749.5254 -508.2786 751.0864 -512.9102 752.7422 C-521.0586 755.6261 -528.8201 757.6062 -537.3811 758.8198 C-544.7478 759.943 -551.284 762.5124 -558.1611 765.2876 C-561.9887 766.7704 -565.9258 767.8999 -569.8594 769.0625 C-571.9839 769.6967 -574.0987 770.3644 -576.2031 771.0625 C-581.7953 772.8996 -587.0858 774.2387 -592.9375 774.9375 C-599.4282 775.737 -604.9777 777.5417 -611.0391 779.8789 C-615.4819 781.5611 -619.1063 782.1122 -623.8877 782.2903 C-631.3849 782.5742 -637.9201 783.3892 -645 786 C-653.1189 788.9473 -660.3407 790.3297 -668.9036 790.6438 C-675.7225 790.9304 -681.3277 792.5234 -687.6133 795.0508 C-696.3555 798.235 -704.6366 798.521 -713.8909 798.5845 C-721.8759 798.6982 -728.3529 800.2162 -735.7832 803.0684 C-746.0329 806.7126 -755.9468 806.5692 -766.6875 806.5625 C-778.4552 806.5781 -788.527 806.6199 -799.5707 811.0255 C-808.938 814.3741 -817.6946 814.5602 -827.5513 814.5164 C-830.4496 814.5036 -833.347 814.5152 -836.2453 814.5325 C-841.3525 814.559 -846.4595 814.5648 -851.5668 814.5634 C-859.7491 814.5611 -867.9311 814.5755 -876.1132 814.6189 C-878.9527 814.6287 -881.7916 814.6201 -884.631 814.6102 C-893.3214 814.619 -900.8012 814.8914 -909 818 C-918.027 821.2926 -925.9719 822.5785 -935.5574 822.5034 C-936.8652 822.5092 -938.173 822.515 -939.5204 822.521 C-943.1278 822.5365 -946.7348 822.5273 -950.3422 822.5139 C-954.2753 822.5037 -958.2084 822.5168 -962.1415 822.5268 C-969.0274 822.5413 -975.9131 822.5409 -982.799 822.5307 C-993.0387 822.5155 -1003.2782 822.5233 -1013.5179 822.5355 C-1031.8074 822.5565 -1050.0969 822.5547 -1068.3864 822.5432 C-1084.392 822.5331 -1100.3975 822.5305 -1116.403 822.5353 C-1116.934 822.5354 -1116.934 822.5354 -1119.621 822.5362 C-1123.9318 822.5374 -1128.2426 822.5387 -1132.5534 822.54 C-1172.987 822.5523 -1213.4206 822.5412 -1253.8542 822.5196 C-1289.7723 822.5007 -1325.6903 822.5024 -1361.6084 822.5215 C-1401.9684 822.5429 -1442.3283 822.5514 -1482.6883 822.539 C-1486.9912 822.5378 -1491.2941 822.5365 -1495.597 822.5353 C-1496.6565 822.5349 -1497.716 822.5346 -1498.8076 822.5343 C-1514.8025 822.5298 -1530.7974 822.5351 -1546.7924 822.5452 C-1564.9805 822.5566 -1583.1685 822.5538 -1601.3566 822.5321 C-1611.5342 822.5203 -1621.7116 822.5195 -1631.8892 822.5346 C-1638.6895 822.5436 -1645.4896 822.538 -1652.2898 822.5206 C-1656.163 822.5111 -1660.0359 822.5078 -1663.909 822.5222 C-1668.0871 822.5376 -1672.2645 822.5219 -1676.4426 822.5034 C-1677.6368 822.5127 -1678.8311 822.5221 -1680.0616 822.5317 C-1688.3294 822.4583 -1695.228 820.7337 -1703 818 C-1709.752 815.699 -1715.591 814.5633 -1722.7296 814.6225 C-1723.66 814.6181 -1724.5904 814.6138 -1725.549 814.6093 C-1728.654 814.5984 -1731.7585 814.6087 -1734.8635 814.619 C-1737.1172 814.6156 -1739.3708 814.6108 -1741.6245 814.6049 C-1747.8079 814.5923 -1753.9911 814.5985 -1760.1745 814.6078 C-1766.1612 814.6139 -1772.1478 814.6059 -1778.1345 814.5984 C-1791.1321 814.5826 -1804.1297 814.584 -1817.1273 814.5926 C-1828.5018 814.6002 -1839.8763 814.6021 -1851.2508 814.5986 C-1852.0056 814.5983 -1852.7604 814.5981 -1853.5381 814.5979 C-1856.6021 814.5969 -1859.6662 814.596 -1862.7303 814.595 C-1891.4676 814.5858 -1920.2049 814.5941 -1948.9422 814.6103 C-1974.4677 814.6245 -1999.9931 814.6232 -2025.5186 814.6089 C-2054.2037 814.5928 -2082.8887 814.5865 -2111.5738 814.5957 C-2114.6323 814.5967 -2117.6908 814.5976 -2120.7492 814.5986 C-2121.1258 814.5987 -2121.1258 814.5987 -2123.0312 814.5993 C-2134.398 814.6027 -2145.7647 814.5987 -2157.1314 814.5911 C-2170.0572 814.5825 -2182.983 814.5847 -2195.9088 814.601 C-2202.5044 814.609 -2209.1 814.6119 -2215.6956 814.602 C-2221.7331 814.5931 -2227.7704 814.598 -2233.8079 814.6139 C-2235.9921 814.6173 -2238.1764 814.6156 -2240.3606 814.6083 C-2243.3307 814.5992 -2246.3003 814.6086 -2249.2704 814.6225 C-2250.1172 814.6155 -2250.9641 814.6084 -2251.8366 814.6012 C-2259.0697 814.6689 -2265.3187 816.608 -2272.0421 819.1503 C-2281.5945 822.7093 -2290.9823 822.5572 -2301.0328 822.5164 C-2304.2 822.5037 -2307.3663 822.5152 -2310.5334 822.5325 C-2316.1141 822.559 -2321.6945 822.5648 -2327.2753 822.5634 C-2336.2156 822.5611 -2345.1556 822.5754 -2354.0958 822.6189 C-2357.2011 822.6287 -2360.306 822.6201 -2363.4113 822.6102 C-2365.3298 822.6164 -2367.2483 822.6233 -2369.1667 822.6311 C-2369.5921 822.6272 -2369.5921 822.6272 -2371.7445 822.6077 C-2378.9826 822.668 -2385.243 824.5389 -2391.9524 827.1482 C-2403.1062 831.4074 -2414.9254 830.5686 -2426.6875 830.5625 C-2429.9926 830.5661 -2433.2972 830.5758 -2436.6022 830.6033 C-2438.6447 830.6198 -2440.6872 830.6231 -2442.7297 830.6102 C-2450.4004 830.6665 -2456.8214 832.3907 -2463.9414 835.1328 C-2472.4963 838.3712 -2480.8144 838.5222 -2489.8909 838.5845 C-2497.9241 838.6988 -2504.4796 840.2591 -2511.9414 843.1328 C-2520.4963 846.3712 -2528.8144 846.5222 -2537.8909 846.5845 C-2544.7695 846.6824 -2550.535 847.6563 -2557 850 C-2565.1496 852.8647 -2572.3216 854.329 -2580.9036 854.6438 C-2586.739 854.8891 -2591.5543 856.0102 -2597 858 C-2603.6314 860.245 -2609.9695 862.1104 -2616.9375 862.9375 C-2621.8873 863.5487 -2626.1011 864.6359 -2630.75 866.4375 C-2636.1781 868.5248 -2641.2817 869.6772 -2647 870.5 C-2653.8867 871.4934 -2659.8763 873.2844 -2666.3828 875.8164 C-2670.5348 877.175 -2674.562 877.83 -2678.875 878.4375 C-2687.1839 879.63 -2694.4179 882.1633 -2702.1699 885.292 C-2705.9625 886.7592 -2709.8722 887.8562 -2713.7656 889.0195 C-2719.1168 890.6417 -2724.4067 892.4474 -2729.7061 894.23 C-2734.2805 895.7655 -2738.8595 897.2876 -2743.4375 898.8125 C-2745.5195 899.5065 -2747.6016 900.2005 -2749.6836 900.8945 C-2762.0352 905.0117 -2762.0352 905.0117 -2765.0229 906.0076 C-2767.0051 906.6683 -2768.9872 907.3293 -2770.9692 907.9905 C-2776.1303 909.7118 -2781.2926 911.4293 -2786.457 913.1406 C-2787.5212 913.4938 -2788.5853 913.847 -2789.6816 914.2109 C-2791.6942 914.8789 -2793.7072 915.5456 -2795.7207 916.2109 C-2798.4845 917.129 -2801.2424 918.0634 -2804 919 C-2804.3982 919.132 -2804.3982 919.132 -2806.4134 919.8002 C-2814.6167 922.6337 -2822.2791 926.4118 -2830.0195 930.293 C-2831.4499 931.0058 -2832.8803 931.7184 -2834.311 932.4307 C-2837.2957 933.9187 -2840.2781 935.411 -2843.259 936.9065 C-2847.036 938.8007 -2850.8191 940.6822 -2854.6041 942.5601 C-2857.5576 944.0276 -2860.5073 945.5027 -2863.456 946.9799 C-2864.8471 947.6755 -2866.2394 948.3687 -2867.6331 949.0592 C-2894.0968 962.1884 -2894.0968 962.1884 -2899 971 C-2899.125 973.8125 -2899.125 973.8125 -2898 976 C-2892.866 977.5581 -2888.9641 976.3564 -2884.0625 974.6875 C-2878.4634 972.895 -2873.1883 971.6208 -2867.3125 971 C-2860.9529 970.2971 -2855.6708 968.525 -2849.7305 966.2227 C-2845.4987 964.8357 -2841.3952 964.1319 -2837 963.5 C-2831.3646 962.6872 -2826.3415 961.5773 -2821 959.5 C-2814.909 957.1313 -2809.0941 956.0908 -2802.6719 955.1641 C-2797.852 954.4263 -2793.5693 953.2769 -2789 951.5 C-2782.909 949.1313 -2777.0941 948.0908 -2770.6719 947.1641 C-2765.852 946.4263 -2761.5693 945.2769 -2757 943.5 C-2751.6584 941.4227 -2746.6354 940.3132 -2741 939.5 C-2733.8483 938.4679 -2727.5742 936.7204 -2720.8203 934.0859 C-2716.4433 932.4006 -2712.832 931.8855 -2708.1123 931.7097 C-2700.6151 931.4258 -2694.0799 930.6108 -2687 928 C-2678.8811 925.0527 -2671.6593 923.6703 -2663.0964 923.3562 C-2656.2291 923.0676 -2650.6544 921.37 -2644.2791 918.98 C-2635.1399 915.8152 -2626.8534 915.4299 -2617.3125 915.4375 C-2606.8704 915.4199 -2598.0724 914.7301 -2588.2324 910.9316 C-2577.9688 907.3011 -2568.0636 907.4308 -2557.3125 907.4375 C-2535.9525 907.4091 -2535.9525 907.4091 -2527 904 C-2517.3913 900.4099 -2508.7559 899.4237 -2498.5535 899.4921 C-2497.0336 899.4874 -2495.5137 899.4811 -2493.9938 899.4732 C-2489.8524 899.4566 -2485.7113 899.4647 -2481.5699 899.4771 C-2477.0899 899.4862 -2472.61 899.4722 -2468.13 899.4612 C-2459.3676 899.4434 -2450.6054 899.4472 -2441.843 899.4588 C-2434.7186 899.4679 -2427.5942 899.4691 -2420.4698 899.4647 C-2419.9619 899.4644 -2419.9619 899.4644 -2417.3916 899.4629 C-2415.3277 899.4616 -2413.2637 899.4603 -2411.1998 899.459 C-2391.868 899.4476 -2372.5363 899.4607 -2353.2045 899.4822 C-2336.634 899.5001 -2320.0636 899.497 -2303.4932 899.4785 C-2284.2283 899.4571 -2264.9635 899.4487 -2245.6986 899.461 C-2243.6424 899.4622 -2241.5863 899.4635 -2239.5302 899.4647 C-2238.5187 899.4654 -2237.5071 899.466 -2236.4649 899.4666 C-2229.353 899.4701 -2222.2412 899.4642 -2215.1292 899.4548 C-2206.4566 899.4436 -2197.784 899.4467 -2189.1114 899.4679 C-2184.6904 899.4784 -2180.2698 899.4826 -2175.8489 899.4693 C-2171.7949 899.4573 -2167.7413 899.4641 -2163.6874 899.4853 C-2162.2279 899.4897 -2160.7685 899.4875 -2159.309 899.4778 C-2149.8293 899.4192 -2141.8915 900.7046 -2133 904 C-2124.8713 906.9599 -2117.3912 907.4168 -2108.8207 907.3801 C-2106.4596 907.3709 -2104.0991 907.3814 -2101.738 907.3967 C-2095.0321 907.4365 -2088.3263 907.4381 -2081.6204 907.4358 C-2077.4978 907.4357 -2073.3757 907.4551 -2069.2533 907.4851 C-2066.9507 907.4958 -2064.6489 907.4839 -2062.3464 907.4713 C-2053.2994 907.4931 -2045.538 908.8557 -2037 912 C-2029.3311 914.8114 -2022.4726 915.4197 -2014.3023 915.3801 C-2012.2099 915.3709 -2010.1184 915.3814 -2008.0261 915.3967 C-2002.0849 915.4364 -1996.1437 915.4381 -1990.2024 915.4358 C-1986.5467 915.4357 -1982.8914 915.4552 -1979.2358 915.4851 C-1977.1991 915.4958 -1975.1633 915.4839 -1973.1266 915.4713 C-1964.3981 915.5404 -1957.1926 917.059 -1949 920 C-1941.741 922.53 -1935.4486 923.4194 -1927.7617 923.3711 C-1925.6204 923.3885 -1923.4792 923.4061 -1921.3379 923.4238 C-1918.014 923.4339 -1914.6903 923.4375 -1911.3665 923.4358 C-1899.1228 923.4494 -1888.5044 923.5259 -1877 928 C-1869.2535 930.9004 -1862.2419 931.415 -1854.0117 931.3711 C-1851.5059 931.3885 -1849 931.4061 -1846.4941 931.4238 C-1842.5909 931.4339 -1838.6877 931.4375 -1834.7844 931.4358 C-1830.9849 931.4394 -1827.1861 931.4668 -1823.3867 931.4961 C-1822.2384 931.4879 -1821.09 931.4797 -1819.9069 931.4713 C-1810.7424 931.5543 -1803.041 933.7974 -1794.4806 936.9186 C-1787.7499 939.212 -1781.3837 939.4144 -1774.3023 939.3801 C-1772.2099 939.3709 -1770.1184 939.3814 -1768.0261 939.3967 C-1762.0849 939.4364 -1756.1437 939.4381 -1750.2024 939.4358 C-1746.5467 939.4357 -1742.8914 939.4552 -1739.2358 939.4851 C-1737.1991 939.4958 -1735.1633 939.4839 -1733.1266 939.4713 C-1723.4845 939.5476 -1715.5341 941.5512 -1706.549 944.9186 C-1699.3719 947.4071 -1692.3247 947.4122 -1684.8207 947.3801 C-1682.4596 947.3709 -1680.0991 947.3814 -1677.738 947.3967 C-1671.0321 947.4365 -1664.3263 947.4381 -1657.6204 947.4358 C-1653.4978 947.4357 -1649.3757 947.4551 -1645.2533 947.4851 C-1642.9507 947.4958 -1640.6489 947.4839 -1638.3464 947.4713 C-1628.384 947.4953 -1619.9369 949.3257 -1610.6173 952.9186 C-1603.0018 955.6065 -1595.3119 955.4107 -1587.3392 955.3801 C-1584.7092 955.3709 -1582.0799 955.3814 -1579.4499 955.3967 C-1571.9794 955.4366 -1564.5089 955.4381 -1557.0383 955.4358 C-1552.449 955.4357 -1547.86 955.4551 -1543.2708 955.4851 C-1540.7023 955.4958 -1538.1345 955.4839 -1535.5661 955.4713 C-1525.9756 955.492 -1518.0891 956.6969 -1509 960 C-1502.251 962.3734 -1496.3107 963.4337 -1489.1667 963.3689 C-1488.2401 963.3727 -1487.3134 963.3764 -1486.3586 963.3803 C-1484.3645 963.3867 -1482.3702 963.3865 -1480.376 963.3801 C-1477.2084 963.3709 -1474.0413 963.3813 -1470.8737 963.3967 C-1461.8739 963.4366 -1452.8742 963.4381 -1443.8743 963.4358 C-1438.3513 963.4357 -1432.8286 963.455 -1427.3057 963.4851 C-1424.2054 963.4959 -1421.1058 963.4839 -1418.0055 963.4713 C-1407.573 963.49 -1398.8535 964.2743 -1389 968 C-1382.2582 970.3872 -1376.306 971.4337 -1369.1667 971.3689 C-1368.2401 971.3727 -1367.3134 971.3764 -1366.3586 971.3803 C-1364.3645 971.3867 -1362.3702 971.3865 -1360.376 971.3801 C-1357.2084 971.3709 -1354.0413 971.3813 -1350.8737 971.3967 C-1341.8739 971.4366 -1332.8742 971.4381 -1323.8743 971.4358 C-1318.3513 971.4357 -1312.8286 971.455 -1307.3057 971.4851 C-1304.2054 971.4959 -1301.1058 971.4839 -1298.0055 971.4713 C-1287.573 971.49 -1278.8535 972.2743 -1269 976 C-1261.0898 978.9728 -1253.9018 979.4219 -1245.4949 979.3689 C-1243.4735 979.3747 -1241.4521 979.3805 -1239.4307 979.3863 C-1237.2765 979.3898 -1235.1224 979.386 -1232.9682 979.3801 C-1228.4565 979.3684 -1223.945 979.3808 -1219.4333 979.3967 C-1208.2281 979.4328 -1197.023 979.4392 -1185.8177 979.4366 C-1177.1031 979.4349 -1168.3886 979.4422 -1159.674 979.4766 C-1155.2016 979.4933 -1150.7297 979.4917 -1146.2573 979.4758 C-1143.4596 979.47 -1140.6621 979.4808 -1137.8645 979.496 C-1135.9765 979.5015 -1134.0885 979.4873 -1132.2006 979.4722 C-1123.0411 979.5481 -1115.3903 981.6707 -1106.8315 984.7904 C-1099.9122 987.1285 -1093.5439 987.4245 -1086.279 987.3853 C-1085.0314 987.3905 -1083.7837 987.3957 -1082.4982 987.4011 C-1079.0605 987.4126 -1075.6233 987.4109 -1072.1857 987.4034 C-1068.4685 987.3987 -1064.7514 987.4113 -1061.0342 987.4218 C-1054.6005 987.4377 -1048.1668 987.443 -1041.733 987.4413 C-1032.4212 987.4389 -1023.1095 987.4549 -1013.7977 987.4757 C-998.6751 987.5092 -983.5525 987.5309 -968.4299 987.5437 C-967.9779 987.5441 -967.9779 987.5441 -965.6902 987.546 C-962.0268 987.5491 -958.3634 987.5522 -954.7001 987.5553 C-944.6133 987.5638 -934.5265 987.5747 -924.4397 987.5867 C-923.988 987.5872 -923.988 987.5872 -921.7024 987.5899 C-906.6333 987.608 -891.5642 987.634 -876.4951 987.6648 C-867.208 987.6833 -857.9208 987.6943 -848.6336 987.6953 C-842.2706 987.6964 -835.9076 987.7044 -829.5446 987.7177 C-825.8756 987.7251 -822.2067 987.7292 -818.5378 987.7246 C-814.5565 987.7196 -810.5753 987.73 -806.594 987.7417 C-806.0171 987.7397 -806.0171 987.7397 -803.0979 987.7297 C-797.4717 987.7591 -792.3299 988.1005 -786.88 989.5456 C-783.9178 990.2616 -781.0356 990.2641 -778 990.25 C-777.4431 990.2526 -777.4431 990.2526 -774.625 990.2656 C-771 990 -771 990 -767.297 989.0004 C-760.1745 987.3889 -752.8841 987.7159 -745.6233 987.7288 C-743.9732 987.7244 -742.3231 987.7191 -740.673 987.7129 C-737.134 987.7015 -733.595 987.696 -730.056 987.695 C-724.453 987.6931 -718.8502 987.675 -713.2473 987.6543 C-699.3329 987.6052 -685.4185 987.5742 -671.504 987.553 C-660.6831 987.5364 -649.8623 987.5136 -639.0414 987.47 C-633.4786 987.4483 -627.9161 987.4401 -622.3532 987.4424 C-618.8849 987.4407 -615.4166 987.4266 -611.9483 987.4091 C-610.348 987.4036 -608.7477 987.403 -607.1474 987.4081 C-598.6687 987.432 -590.9809 987.1305 -583 984 C-572.9147 980.4189 -563.9025 979.4291 -553.3125 979.4375 C-535.6383 979.4077 -535.6383 979.4077 -527 976 C-517.2079 972.2288 -508.5789 971.4873 -498.1091 971.4155 C-491.2236 971.3175 -485.4762 970.3205 -479 968 C-477.9017 967.6378 -476.8034 967.2755 -475.6719 966.9023 C-474.7077 966.5839 -473.7434 966.2655 -472.75 965.9375 C-468.1746 964.5107 -463.8194 963.6272 -459.0625 963.0625 C-454.1127 962.4513 -449.8989 961.3641 -445.25 959.5625 C-439.8219 957.4752 -434.7183 956.3228 -429 955.5 C-422.1133 954.5066 -416.1237 952.7156 -409.6172 950.1836 C-405.4652 948.825 -401.438 948.17 -397.125 947.5625 C-388.8161 946.37 -381.5821 943.8367 -373.8301 940.708 C-370.0375 939.2408 -366.1278 938.1438 -362.2344 936.9805 C-356.8832 935.3583 -351.5933 933.5526 -346.2939 931.77 C-341.7195 930.2345 -337.1405 928.7124 -332.5625 927.1875 C-330.4805 926.4935 -328.3984 925.7995 -326.3164 925.1055 C-313.9648 920.9883 -313.9648 920.9883 -310.9771 919.9924 C-308.9949 919.3317 -307.0128 918.6707 -305.0308 918.0095 C-299.8697 916.2882 -294.7074 914.5707 -289.543 912.8594 C-289.0109 912.6828 -289.0109 912.6828 -286.3184 911.7891 C-284.3058 911.1211 -282.2928 910.4544 -280.2793 909.7891 C-277.5155 908.871 -274.7576 907.9364 -272 907 C-271.1408 906.72 -270.2815 906.4401 -269.3962 906.1516 C-260.3961 903.0894 -252.0981 898.5992 -243.7273 894.1443 C-236.6214 890.3771 -229.7003 887.084 -221.9442 884.8898 C-204.9348 880.07 -189.4654 871.8393 -173.7485 863.8958 C-169.4771 861.7372 -165.1919 859.6078 -160.9017 857.4866 C-157.5376 855.8192 -154.1814 854.1363 -150.8272 852.4489 C-149.2519 851.6586 -147.6743 850.8728 -146.0941 850.0922 C-136.8729 845.5249 -128.6324 840.4912 -120.5003 834.173 C-115.664 830.4271 -110.8294 827.4152 -105.25 824.875 C-104.4227 824.4765 -103.5955 824.078 -102.7432 823.6675 C-99.3135 822.0161 -95.8653 820.4052 -92.418 818.791 C-81.4969 813.6453 -71.7974 808.1324 -62.3523 800.5786 C-59.4978 798.3122 -56.5729 796.5251 -53.3125 794.875 C-48.3501 792.3603 -44.1608 789.1235 -39.8352 785.6714 C-35.7028 782.4201 -31.4753 780.0106 -26.8125 777.625 C-23.4728 775.6954 -20.5066 773.3996 -17.5 771 C-12.8323 767.2746 -8.125 764.343 -2.8125 761.625 C0.5272 759.6954 3.4934 757.3996 6.5 755 C11.1677 751.2746 15.875 748.343 21.1875 745.625 C25.1372 743.343 28.6058 740.5153 32.1575 737.6741 C35.5244 735.0205 38.8668 732.8721 42.6875 730.9375 C50.9704 726.6462 57.0439 719.9853 63.5 713.375 C68.9881 707.8484 74.6866 703.1852 81.6602 699.6523 C90.0252 695.3375 95.904 689.4776 102.3301 682.6609 C109.9811 674.6299 118.6347 669.0283 128.2461 663.5781 C129.8662 662.6497 131.4714 661.6924 133.0352 660.6719 C137.6337 657.697 140.678 657.3133 146 658 C150.1842 659.997 151.5213 662.7308 153.1875 666.875 C154.6372 671.2011 155.3921 675.3506 155.9375 679.875 C156.6926 686.1146 158.4269 691.3902 160.8789 697.1602 C162.7103 701.7994 163.104 705.998 163.2903 710.9756 C163.5765 718.4491 164.4196 724.9379 167 732 C169.253 738.655 171.1138 745.0063 171.9375 752 C172.5291 756.8014 173.5434 760.7397 175.4375 765.1875 C177.7142 770.6237 178.7209 775.707 179.5 781.5 C180.4631 788.6518 182.021 794.6906 184.9141 801.3359 C186.7693 805.8874 187.1069 810.0763 187.2903 814.9756 C187.5765 822.4491 188.4196 828.9379 191 836 C193.253 842.655 195.1138 849.0063 195.9375 856 C196.6977 862.1854 198.4474 867.4386 200.8789 873.1602 C202.7103 877.7994 203.104 881.998 203.2903 886.9756 C203.6163 895.4864 204.8573 902.6712 208.0508 910.6133 C211.235 919.3555 211.521 927.6366 211.5845 936.8909 C211.699 944.9379 213.2404 951.5157 216.168 958.9766 C221.254 972.1885 221.3488 989.8673 216.3242 1003.125 C209.5884 1017.749 200.5992 1028.7622 189.2646 1040.051 C187.6254 1041.6871 186 1043.3361 184.375 1044.9863 C176.6508 1052.758 168.7553 1059.1716 159 1064.3125 C153.5845 1067.3942 149.6919 1071.0876 145.4219 1075.582 C139.313 1081.6811 131.7828 1085.8355 124.25 1089.9336 C121.3782 1091.7595 118.9507 1093.6817 116.3516 1095.8633 C111.072 1100.1545 105.5292 1102.923 99.375 1105.75 C92.0136 1109.2648 85.3306 1112.843 79 1118 C71.9668 1123.7228 64.386 1127.5851 56.125 1131.2891 C50.9003 1133.7169 46.3351 1136.4049 41.8497 1139.993 C31.8676 1147.9411 21.0431 1153.564 9.6484 1159.207 C7.616 1160.2259 5.5841 1161.2458 3.5526 1162.2665 C-0.6797 1164.3885 -4.9175 1166.4991 -9.1597 1168.6013 C-14.5356 1171.2665 -19.8967 1173.9601 -25.2539 1176.6627 C-29.4402 1178.7705 -33.6343 1180.8627 -37.8306 1182.9506 C-39.8076 1183.9365 -41.7824 1184.9269 -43.7546 1185.9225 C-54.7835 1191.4782 -65.6522 1196.2303 -77.5307 1199.6832 C-85.5157 1202.01 -92.6278 1205.4701 -99.9344 1209.3947 C-112.5465 1216.1437 -124.9361 1221.6354 -138.7837 1225.3853 C-142.0256 1226.2845 -145.1895 1227.3546 -148.375 1228.4375 C-149.5493 1228.832 -150.7237 1229.2264 -151.9336 1229.6328 C-152.5664 1229.8458 -153.1991 1230.0588 -153.8511 1230.2783 C-158.377 1231.7983 -162.9078 1233.3037 -167.4375 1234.8125 C-169.5195 1235.5065 -171.6016 1236.2005 -173.6836 1236.8945 C-183.7715 1240.2572 -183.7715 1240.2572 -234.2109 1257.0703 C-235.2324 1257.411 -236.2538 1257.7517 -237.3062 1258.1028 C-239.3397 1258.7802 -241.3739 1259.4558 -243.4087 1260.1296 C-247.9127 1261.6232 -252.4066 1263.1332 -256.875 1264.7305 C-265.0641 1267.6279 -272.8965 1269.6567 -281.502 1270.8835 C-287.7401 1271.8191 -293.3148 1273.6263 -299.1797 1275.9141 C-303.5567 1277.5994 -307.168 1278.1145 -311.8877 1278.2903 C-319.3849 1278.5742 -325.9201 1279.3892 -333 1282 C-341.1189 1284.9473 -348.3407 1286.3297 -356.9036 1286.6438 C-363.7225 1286.9304 -369.3277 1288.5234 -375.6133 1291.0508 C-384.3555 1294.235 -392.6366 1294.521 -401.8909 1294.5845 C-409.9412 1294.6991 -416.402 1296.3199 -423.9238 1299.0684 C-432.9206 1302.1563 -441.3016 1302.5699 -450.6875 1302.5625 C-461.0413 1302.5799 -469.8549 1303.1764 -479.5951 1307.0255 C-488.9518 1310.3804 -497.7032 1310.5602 -507.5513 1310.5164 C-510.4496 1310.5036 -513.347 1310.5152 -516.2453 1310.5325 C-521.3525 1310.559 -526.4595 1310.5648 -531.5668 1310.5634 C-539.7491 1310.5611 -547.9311 1310.5755 -556.1132 1310.6189 C-558.9527 1310.6287 -561.7916 1310.6201 -564.631 1310.6102 C-573.3225 1310.619 -580.7998 1310.8937 -589 1314 C-597.8405 1317.2014 -605.6349 1318.5848 -615.0195 1318.5176 C-616.249 1318.5246 -617.4785 1318.5316 -618.7452 1318.5388 C-622.0761 1318.5533 -625.4061 1318.5501 -628.7369 1318.5373 C-632.2489 1318.5271 -635.7608 1318.5366 -639.2727 1318.5428 C-645.1666 1318.5501 -651.0603 1318.5406 -656.9541 1318.5215 C-663.7349 1318.4997 -670.5153 1318.5068 -677.2961 1318.5288 C-683.1539 1318.547 -689.0115 1318.5495 -694.8693 1318.539 C-698.3522 1318.5329 -701.8349 1318.5318 -705.3178 1318.5452 C-709.2055 1318.5591 -713.0928 1318.5397 -716.9805 1318.5176 C-718.1102 1318.5257 -719.2399 1318.5338 -720.4039 1318.5421 C-728.5326 1318.4569 -735.3553 1316.6715 -743 1314 C-749.7898 1311.6842 -755.6538 1310.566 -762.8333 1310.6311 C-763.2966 1310.6292 -763.2966 1310.6292 -765.6414 1310.6197 C-767.6355 1310.6133 -769.6298 1310.6135 -771.624 1310.6199 C-774.7916 1310.6291 -777.9587 1310.6187 -781.1263 1310.6033 C-790.1261 1310.5634 -799.1258 1310.5619 -808.1257 1310.5642 C-813.6487 1310.5643 -819.1714 1310.545 -824.6943 1310.5149 C-827.7946 1310.5041 -830.8942 1310.5161 -833.9945 1310.5287 C-844.3856 1310.5101 -853.2044 1309.8327 -863 1306 C-870.2471 1303.4477 -876.5605 1302.5806 -884.2383 1302.6289 C-886.3796 1302.6115 -888.5208 1302.5939 -890.6621 1302.5762 C-893.986 1302.5661 -897.3097 1302.5625 -900.6335 1302.5642 C-923.9072 1302.5383 -923.9072 1302.5383 -935 1298 C-945.6225 1293.731 -956.7854 1294.5572 -968.0515 1294.5642 C-979.1046 1294.5493 -988.5473 1294.0124 -999 1290 C-1006.5842 1287.3033 -1013.2772 1286.6176 -1021.3125 1286.5625 C-1030.7124 1286.3469 -1038.211 1285.3849 -1047 1282 C-1054.5336 1279.2239 -1061.3224 1278.6173 -1069.3125 1278.5625 C-1078.6587 1278.3481 -1086.2804 1277.5061 -1095 1274 C-1101.1533 1271.7013 -1106.7505 1270.8032 -1113.3125 1270.5625 C-1121.9433 1270.2391 -1129.3288 1268.0913 -1137.4258 1265.1055 C-1142.7387 1263.2928 -1147.7223 1262.7676 -1153.3125 1262.5625 C-1161.9433 1262.2391 -1169.3288 1260.0913 -1177.4258 1257.1055 C-1182.7387 1255.2928 -1187.7223 1254.7676 -1193.3125 1254.5625 C-1201.9433 1254.2391 -1209.3288 1252.0913 -1217.4258 1249.1055 C-1222.7387 1247.2928 -1227.7223 1246.7676 -1233.3125 1246.5625 C-1241.0598 1246.2722 -1247.6845 1244.6316 -1255 1242 C-1260.4155 1240.1866 -1265.578 1238.8648 -1271.25 1238.125 C-1277.4917 1237.2597 -1283.0418 1235.3875 -1288.9062 1233.1211 C-1293.6349 1231.4076 -1297.7961 1230.9153 -1302.824 1230.7603 C-1311.4549 1230.4717 -1318.8364 1228.9367 -1327 1226 C-1332.4155 1224.1866 -1337.578 1222.8648 -1343.25 1222.125 C-1349.4917 1221.2597 -1355.0418 1219.3875 -1360.9062 1217.1211 C-1365.6349 1215.4076 -1369.7961 1214.9153 -1374.824 1214.7603 C-1383.4549 1214.4717 -1390.8364 1212.9367 -1399 1210 C-1404.4155 1208.1866 -1409.578 1206.8648 -1415.25 1206.125 C-1421.4917 1205.2597 -1427.0418 1203.3875 -1432.9062 1201.1211 C-1437.6349 1199.4076 -1441.7961 1198.9153 -1446.824 1198.7603 C-1455.4549 1198.4717 -1462.8364 1196.9367 -1471 1194 C-1476.4155 1192.1866 -1481.578 1190.8648 -1487.25 1190.125 C-1493.4917 1189.2597 -1499.0418 1187.3875 -1504.9062 1185.1211 C-1509.6349 1183.4076 -1513.7961 1182.9153 -1518.824 1182.7603 C-1527.4549 1182.4717 -1534.8364 1180.9367 -1543 1178 C-1548.4155 1176.1866 -1553.578 1174.8648 -1559.25 1174.125 C-1565.4917 1173.2597 -1571.0418 1171.3875 -1576.9062 1169.1211 C-1581.6349 1167.4076 -1585.7961 1166.9153 -1590.824 1166.7603 C-1599.4549 1166.4717 -1606.8364 1164.9367 -1615 1162 C-1620.4155 1160.1866 -1625.578 1158.8648 -1631.25 1158.125 C-1637.4917 1157.2597 -1643.0418 1155.3875 -1648.9062 1153.1211 C-1653.6349 1151.4076 -1657.7961 1150.9153 -1662.824 1150.7603 C-1671.4549 1150.4717 -1678.8364 1148.9367 -1687 1146 C-1692.4155 1144.1866 -1697.578 1142.8648 -1703.25 1142.125 C-1709.4917 1141.2597 -1715.0418 1139.3875 -1720.9062 1137.1211 C-1725.6349 1135.4076 -1729.7961 1134.9153 -1734.824 1134.7603 C-1743.4549 1134.4717 -1750.8364 1132.9367 -1759 1130 C-1764.4155 1128.1866 -1769.578 1126.8648 -1775.25 1126.125 C-1781.4917 1125.2597 -1787.0418 1123.3875 -1792.9062 1121.1211 C-1797.6349 1119.4076 -1801.7961 1118.9153 -1806.824 1118.7603 C-1815.4549 1118.4717 -1822.8364 1116.9367 -1831 1114 C-1836.4155 1112.1866 -1841.578 1110.8648 -1847.25 1110.125 C-1853.4917 1109.2597 -1859.0418 1107.3875 -1864.9062 1105.1211 C-1869.6349 1103.4076 -1873.7961 1102.9153 -1878.824 1102.7603 C-1887.4549 1102.4717 -1894.8364 1100.9367 -1903 1098 C-1908.4155 1096.1866 -1913.578 1094.8648 -1919.25 1094.125 C-1924.0418 1093.4596 -1928.1783 1092.3088 -1932.6875 1090.5625 C-1938.1348 1088.4842 -1943.2667 1087.3257 -1949 1086.5 C-1956.1273 1085.4726 -1962.3602 1083.7361 -1969.082 1081.0859 C-1973.7297 1079.3563 -1977.8697 1078.9131 -1982.824 1078.7603 C-1992.3586 1078.4415 -2000.4607 1076.4114 -2009.4258 1073.1055 C-2014.7387 1071.2928 -2019.7223 1070.7676 -2025.3125 1070.5625 C-2033.9433 1070.2391 -2041.3288 1068.0913 -2049.4258 1065.1055 C-2054.7387 1063.2928 -2059.7223 1062.7676 -2065.3125 1062.5625 C-2073.9433 1062.2391 -2081.3288 1060.0913 -2089.4258 1057.1055 C-2094.7387 1055.2928 -2099.7223 1054.7676 -2105.3125 1054.5625 C-2113.8538 1054.2425 -2121.1418 1052.1237 -2129.1692 1049.2136 C-2135.9526 1046.9366 -2142.1968 1046.6113 -2149.3125 1046.5625 C-2159.5436 1046.3278 -2167.4671 1044.9716 -2176.9934 1041.2136 C-2185.6227 1038.1862 -2194.4471 1038.5571 -2203.4695 1038.5642 C-2214.1704 1038.5459 -2223.0947 1036.8303 -2233.2083 1033.2094 C-2239.6595 1031.0654 -2245.4699 1030.5863 -2252.2383 1030.6289 C-2254.3796 1030.6115 -2256.5208 1030.5939 -2258.6621 1030.5762 C-2261.986 1030.5661 -2265.3097 1030.5625 -2268.6335 1030.5642 C-2281.8243 1030.5495 -2292.6515 1030.1144 -2304.9886 1025.2094 C-2312.3246 1022.6252 -2319.5051 1022.587 -2327.1793 1022.6199 C-2329.5404 1022.6291 -2331.9009 1022.6186 -2334.262 1022.6033 C-2340.9679 1022.5635 -2347.6737 1022.5619 -2354.3796 1022.5642 C-2358.5022 1022.5643 -2362.6243 1022.5449 -2366.7467 1022.5149 C-2369.0493 1022.5042 -2371.3511 1022.5161 -2373.6536 1022.5287 C-2382.7246 1022.5069 -2390.4258 1021.0566 -2399 1018 C-2405.9101 1015.5611 -2412.0093 1014.565 -2419.3225 1014.619 C-2420.3122 1014.6144 -2421.3019 1014.6097 -2422.3216 1014.6049 C-2425.6117 1014.593 -2428.9013 1014.6024 -2432.1914 1014.6118 C-2434.5609 1014.6077 -2436.9303 1014.6024 -2439.2998 1014.5959 C-2445.7171 1014.5822 -2452.1342 1014.5875 -2458.5515 1014.597 C-2462.5635 1014.6024 -2466.5754 1014.6013 -2470.5874 1014.5986 C-2470.9211 1014.5983 -2470.9211 1014.5983 -2472.6098 1014.5972 C-2473.9659 1014.5962 -2475.322 1014.5952 -2476.6781 1014.5942 C-2489.3743 1014.5857 -2502.0705 1014.5955 -2514.7667 1014.6116 C-2525.6449 1014.625 -2536.5231 1014.6227 -2547.4014 1014.6089 C-2560.0542 1014.5928 -2572.707 1014.5865 -2585.3598 1014.5957 C-2586.7108 1014.5967 -2588.0617 1014.5976 -2589.4126 1014.5986 C-2590.0771 1014.599 -2590.7417 1014.5995 -2591.4264 1014.6 C-2596.0946 1014.6025 -2600.7627 1014.598 -2605.4309 1014.5911 C-2611.7216 1014.5824 -2618.0121 1014.5885 -2624.3027 1014.6058 C-2626.6077 1014.6098 -2628.9127 1014.6086 -2631.2177 1014.602 C-2634.3712 1014.5938 -2637.5241 1014.6041 -2640.6775 1014.619 C-2641.5832 1014.6124 -2642.4888 1014.6057 -2643.4219 1014.5988 C-2649.7113 1014.6562 -2655.0798 1015.9164 -2661 1018 C-2669.9047 1021.115 -2677.6353 1022.5752 -2687.1066 1022.5164 C-2689.1985 1022.5035 -2691.2892 1022.5153 -2693.3811 1022.5325 C-2697.0679 1022.5589 -2700.7544 1022.5648 -2704.4413 1022.5634 C-2710.3496 1022.5611 -2716.2575 1022.5756 -2722.1656 1022.6189 C-2724.2074 1022.6286 -2726.2485 1022.6201 -2728.2902 1022.6102 C-2735.733 1022.6509 -2742.0363 1023.3373 -2749 1026 C-2760.3942 1030.2298 -2770.6761 1030.57 -2782.6875 1030.5625 C-2804.9707 1030.5921 -2804.9707 1030.5921 -2813 1034 C-2822.7921 1037.7712 -2831.4211 1038.5127 -2841.8909 1038.5845 C-2849.9241 1038.6988 -2856.4796 1040.2591 -2863.9414 1043.1328 C-2872.4963 1046.3712 -2880.8144 1046.5222 -2889.8909 1046.5845 C-2896.7764 1046.6825 -2902.5238 1047.6795 -2909 1050 C-2910.0983 1050.3622 -2911.1966 1050.7245 -2912.3281 1051.0977 C-2913.2923 1051.4161 -2914.2566 1051.7345 -2915.25 1052.0625 C-2919.8254 1053.4893 -2924.1806 1054.3728 -2928.9375 1054.9375 C-2935.4282 1055.737 -2940.9777 1057.5417 -2947.0391 1059.8789 C-2951.4819 1061.5611 -2955.1063 1062.1122 -2959.8877 1062.2903 C-2967.3922 1062.5744 -2973.9089 1063.409 -2981 1066 C-2987.5959 1068.233 -2993.8765 1070.0938 -3000.8125 1070.875 C-3007.7543 1071.7389 -3013.6712 1073.9197 -3020.1172 1076.4844 C-3024.6212 1078.2753 -3029.2126 1079.6891 -3033.8594 1081.0625 C-3035.9839 1081.6967 -3038.0987 1082.3644 -3040.2031 1083.0625 C-3045.7624 1084.8887 -3050.9914 1086.215 -3056.8125 1086.875 C-3063.7574 1087.7393 -3069.6765 1089.9215 -3076.125 1092.4883 C-3080.595 1094.2659 -3085.1583 1095.643 -3089.7656 1097.0195 C-3095.1168 1098.6417 -3100.4067 1100.4474 -3105.7061 1102.23 C-3110.2805 1103.7655 -3114.8595 1105.2876 -3119.4375 1106.8125 C-3121.5195 1107.5065 -3123.6016 1108.2005 -3125.6836 1108.8945 C-3138.0352 1113.0117 -3138.0352 1113.0117 -3141.0229 1114.0076 C-3143.0051 1114.6683 -3144.9872 1115.3293 -3146.9692 1115.9905 C-3152.1303 1117.7118 -3157.2926 1119.4293 -3162.457 1121.1406 C-3163.5212 1121.4938 -3164.5853 1121.847 -3165.6816 1122.2109 C-3167.6942 1122.8789 -3169.7072 1123.5456 -3171.7207 1124.2109 C-3181.4341 1127.4374 -3190.8482 1130.7712 -3200 1135.375 C-3206.3448 1138.4842 -3212.59 1140.9744 -3219.375 1142.9375 C-3226.4632 1144.9914 -3232.8973 1147.709 -3239.5 1151 C-3249.0728 1155.7642 -3258.7255 1159.1069 -3269 1162 C-3269.3265 1162.0972 -3269.3265 1162.0972 -3270.9788 1162.5889 C-3275.6759 1163.9814 -3279.4955 1164.6092 -3284.3125 1163.4375 C-3286 1162 -3286 1162 -3287.125 1158.9375 C-3286.8249 1149.484 -3277.9779 1142.3564 -3271.5039 1136.1484 C-3265.8502 1130.9299 -3259.5089 1126.5001 -3252.7811 1122.7696 C-3244.33 1117.8549 -3237.8996 1111.3841 -3231.1049 1104.4361 C-3229.0145 1102.2987 -3226.9117 1100.1741 -3224.8057 1098.0521 C-3220.3382 1093.546 -3215.8875 1089.0234 -3211.4375 1084.5 C-3206.2709 1079.2527 -3201.0974 1074.0124 -3195.9123 1068.7834 C-3193.8552 1066.7034 -3191.8079 1064.614 -3189.7611 1062.5238 C-3181.7346 1054.3825 -3173.8886 1047.2375 -3163.5 1042.1875 C-3156.4495 1038.2068 -3151.1917 1032.5184 -3145.6699 1026.6609 C-3138.9374 1019.594 -3131.6374 1014.2393 -3123 1009.6875 C-3117.5845 1006.6058 -3113.6919 1002.9124 -3109.4219 998.418 C-3104.028 993.0328 -3097.5893 989.3038 -3091 985.5625 C-3087.007 983.2881 -3083.4665 980.8792 -3079.9375 977.9375 C-3076.6555 975.2043 -3073.4868 973.0741 -3069.6875 971.125 C-3065.2494 968.834 -3061.3917 966.1081 -3057.5 963 C-3052.8169 959.262 -3048.094 956.3248 -3042.7617 953.6016 C-3039.651 951.7976 -3037.0759 949.6748 -3034.3125 947.375 C-3027.6359 941.9045 -3020.1192 938.3492 -3012.2805 934.814 C-3006.0567 931.9018 -3000.8554 928.4696 -2995.4883 924.2422 C-2985.9293 916.7765 -2975.3523 911.9108 -2964.418 906.791 C-2961.8549 905.5834 -2959.3026 904.3546 -2956.75 903.125 C-2956.0078 902.7871 -2955.2656 902.4492 -2954.501 902.1011 C-2949.8092 899.8381 -2945.7846 897.1279 -2941.7008 893.9276 C-2931.6847 886.0825 -2921.0227 880.4259 -2909.6484 874.793 C-2907.616 873.7741 -2905.5841 872.7542 -2903.5526 871.7335 C-2899.3203 869.6115 -2895.0825 867.5009 -2890.8403 865.3987 C-2885.4644 862.7335 -2880.1033 860.0399 -2874.7461 857.3373 C-2870.5598 855.2295 -2866.3657 853.1373 -2862.1694 851.0494 C-2860.1924 850.0635 -2858.2176 849.0731 -2856.2454 848.0775 C-2845.2296 842.5283 -2834.4024 837.9193 -2822.581 834.3677 C-2815.5633 832.2484 -2809.1554 829.5634 -2802.6875 826.0938 C-2801.661 825.5654 -2800.6345 825.037 -2799.5769 824.4926 C-2796.376 822.8444 -2793.1868 821.1754 -2790 819.5 C-2776.1231 812.2043 -2762.75 805.8696 -2747.689 801.436 C-2742.2551 799.826 -2737.3112 797.5918 -2732.3125 794.9375 C-2723.4713 790.4984 -2714.6163 787.3777 -2705.1313 784.6294 C-2701.9989 783.7044 -2698.9074 782.6681 -2695.8125 781.625 C-2694.6111 781.2215 -2693.4097 780.818 -2692.1719 780.4023 C-2691.5203 780.183 -2690.8686 779.9637 -2690.1973 779.7378 C-2685.6551 778.2127 -2681.1083 776.7017 -2676.5625 775.1875 C-2674.4805 774.4935 -2672.3984 773.7995 -2670.3164 773.1055 C-2650.1406 766.3802 -2629.9648 759.6549 -2609.7891 752.9297 C-2608.7676 752.589 -2607.7462 752.2483 -2606.6938 751.8972 C-2604.6603 751.2198 -2602.6261 750.5442 -2600.5913 749.8704 C-2596.0873 748.3768 -2591.5934 746.8668 -2587.125 745.2695 C-2578.9639 742.3823 -2571.1928 740.3956 -2562.6189 739.1802 C-2555.2522 738.057 -2548.716 735.4876 -2541.8389 732.7124 C-2538.0113 731.2296 -2534.0742 730.1001 -2530.1406 728.9375 C-2528.0161 728.3033 -2525.9013 727.6356 -2523.7969 726.9375 C-2518.2047 725.1004 -2512.9142 723.7613 -2507.0625 723.0625 C-2502.1127 722.4513 -2497.8989 721.3641 -2493.25 719.5625 C-2487.8219 717.4752 -2482.7184 716.3229 -2477 715.5 C-2469.8482 714.4682 -2463.5741 712.7204 -2456.8203 710.0859 C-2452.4433 708.4006 -2448.832 707.8855 -2444.1123 707.7097 C-2436.6078 707.4256 -2430.0911 706.591 -2423 704 C-2416.3686 701.755 -2410.0305 699.8896 -2403.0625 699.0625 C-2396.5718 698.263 -2391.0223 696.4583 -2384.9609 694.1211 C-2380.6582 692.492 -2377.1007 691.8731 -2372.4922 691.7891 C-2371.4223 691.7607 -2370.3523 691.7323 -2369.25 691.7031 C-2367.0236 691.6516 -2364.797 691.6072 -2362.5703 691.5703 C-2354.4052 691.3359 -2347.6469 689.7896 -2340.0586 686.8672 C-2331.5037 683.6288 -2323.1856 683.4778 -2314.1091 683.4155 C-2306.0588 683.3009 -2299.598 681.6801 -2292.0762 678.9316 C-2283.0794 675.8437 -2274.6984 675.4301 -2265.3125 675.4375 C-2254.8704 675.4199 -2246.0724 674.7301 -2236.2324 670.9316 C-2225.9688 667.3011 -2216.0636 667.4308 -2205.3125 667.4375 C-2183.9567 667.4091 -2183.9567 667.4091 -2175 664 C-2166.1867 660.7197 -2158.2925 659.4253 -2148.8934 659.4836 C-2146.8015 659.4965 -2144.7108 659.4847 -2142.6189 659.4675 C-2138.9321 659.4411 -2135.2456 659.4352 -2131.5587 659.4366 C-2125.6504 659.4389 -2119.7425 659.4244 -2113.8344 659.3811 C-2111.7926 659.3714 -2109.7515 659.3799 -2107.7098 659.3898 C-2100.2048 659.3487 -2094.0331 658.5643 -2087 656 C-2077.9839 652.8145 -2070.1719 651.428 -2060.6133 651.4961 C-2059.3902 651.4867 -2058.1672 651.4773 -2056.907 651.4675 C-2053.042 651.4391 -2049.1776 651.4358 -2045.3125 651.4375 C-2041.4368 651.4339 -2037.5615 651.4242 -2033.6858 651.3967 C-2031.2873 651.3801 -2028.8886 651.377 -2026.4901 651.3898 C-2018.2478 651.3381 -2011.7242 649.6998 -2004.0243 646.9293 C-1996.1866 644.2737 -1989.1579 643.4323 -1980.8934 643.4836 C-1978.8015 643.4965 -1976.7108 643.4847 -1974.6189 643.4675 C-1970.9321 643.4411 -1967.2456 643.4352 -1963.5587 643.4366 C-1957.6504 643.4389 -1951.7425 643.4244 -1945.8344 643.3811 C-1943.7926 643.3714 -1941.7515 643.3799 -1939.7098 643.3898 C-1932.2048 643.3487 -1926.0331 642.5643 -1919 640 C-1909.9839 636.8145 -1902.1719 635.428 -1892.6133 635.4961 C-1891.3902 635.4867 -1890.1672 635.4773 -1888.907 635.4675 C-1885.042 635.4391 -1881.1776 635.4358 -1877.3125 635.4375 C-1873.4368 635.4339 -1869.5615 635.4242 -1865.6858 635.3967 C-1863.2873 635.3801 -1860.8886 635.377 -1858.4901 635.3898 C-1850.2478 635.3381 -1843.7242 633.6998 -1836.0243 630.9293 C-1828.1866 628.2737 -1821.1579 627.4323 -1812.8934 627.4836 C-1810.8015 627.4965 -1808.7108 627.4847 -1806.6189 627.4675 C-1802.9321 627.4411 -1799.2456 627.4352 -1795.5587 627.4366 C-1789.6504 627.4389 -1783.7425 627.4244 -1777.8344 627.3811 C-1775.7926 627.3714 -1773.7515 627.3799 -1771.7098 627.3898 C-1764.2048 627.3487 -1758.0331 626.5643 -1751 624 C-1741.9839 620.8145 -1734.1719 619.428 -1724.6133 619.4961 C-1723.3902 619.4867 -1722.1672 619.4773 -1720.907 619.4675 C-1717.042 619.4391 -1713.1776 619.4358 -1709.3125 619.4375 C-1705.4368 619.4339 -1701.5615 619.4242 -1697.6858 619.3967 C-1695.2873 619.3801 -1692.8886 619.377 -1690.4901 619.3898 C-1683.4251 619.3455 -1677.6356 618.3617 -1671 616 C-1661.9807 612.8205 -1654.1743 611.428 -1644.6133 611.4961 C-1643.3902 611.4867 -1642.1672 611.4773 -1640.907 611.4675 C-1637.042 611.4391 -1633.1776 611.4358 -1629.3125 611.4375 C-1625.4368 611.4339 -1621.5615 611.4242 -1617.6858 611.3967 C-1615.2873 611.3801 -1612.8886 611.377 -1610.4901 611.3898 C-1603.4251 611.3455 -1597.6356 610.3617 -1591 608 C-1581.9807 604.8205 -1574.1743 603.428 -1564.6133 603.4961 C-1563.3902 603.4867 -1562.1672 603.4773 -1560.907 603.4675 C-1557.042 603.4391 -1553.1776 603.4358 -1549.3125 603.4375 C-1545.4368 603.4339 -1541.5615 603.4242 -1537.6858 603.3967 C-1535.2873 603.3801 -1532.8886 603.377 -1530.4901 603.3898 C-1522.2872 603.3384 -1515.6509 601.8088 -1508.0476 598.8518 C-1496.8938 594.5926 -1485.0746 595.4314 -1473.3125 595.4375 C-1470.0074 595.4339 -1466.7028 595.4242 -1463.3978 595.3967 C-1461.3553 595.3802 -1459.3128 595.3769 -1457.2703 595.3898 C-1449.5816 595.3334 -1443.1783 593.625 -1436.0476 590.8518 C-1424.8938 586.5926 -1413.0746 587.4314 -1401.3125 587.4375 C-1398.0074 587.4339 -1394.7028 587.4242 -1391.3978 587.3967 C-1389.3553 587.3802 -1387.3128 587.3769 -1385.2703 587.3898 C-1377.5816 587.3334 -1371.1783 585.625 -1364.0476 582.8518 C-1352.8938 578.5926 -1341.0746 579.4314 -1329.3125 579.4375 C-1326.0074 579.4339 -1322.7028 579.4242 -1319.3978 579.3967 C-1317.3553 579.3802 -1315.3128 579.3769 -1313.2703 579.3898 C-1305.5226 579.3329 -1299.1232 577.5306 -1291.907 574.8518 C-1281.8423 571.162 -1271.8827 571.4309 -1261.3125 571.4375 C-1239.5396 571.4086 -1239.5396 571.4086 -1231 568 C-1219.702 563.6139 -1209.2546 563.43 -1197.3125 563.4375 C-1175.5396 563.4086 -1175.5396 563.4086 -1167 560 C-1155.702 555.6139 -1145.2546 555.43 -1133.3125 555.4375 C-1111.5979 555.4086 -1111.5979 555.4086 -1103 552 C-1092.9703 548.2956 -1083.8666 547.4291 -1073.3125 547.4375 C-1055.6383 547.4077 -1055.6383 547.4077 -1047 544 C-1037.2079 540.2288 -1028.5789 539.4873 -1018.1091 539.4155 C-1010.0759 539.3012 -1003.5204 537.7409 -996.0586 534.8672 C-987.5037 531.6288 -979.1856 531.4778 -970.1091 531.4155 C-963.2305 531.3176 -957.465 530.3437 -951 528 C-942.8504 525.1353 -935.6784 523.671 -927.0964 523.3562 C-921.2673 523.1112 -916.437 522.005 -911 520 C-902.8811 517.0527 -895.6593 515.6703 -887.0964 515.3562 C-881.261 515.1109 -876.4457 513.9898 -871 512 C-864.3686 509.755 -858.0305 507.8896 -851.0625 507.0625 C-846.1127 506.4513 -841.8989 505.3641 -837.25 503.5625 C-831.8219 501.4752 -826.7183 500.3228 -821 499.5 C-814.1133 498.5066 -808.1237 496.7156 -801.6172 494.1836 C-797.4652 492.825 -793.438 492.17 -789.125 491.5625 C-780.8198 490.3705 -773.5876 487.8393 -765.8389 484.7124 C-762.0113 483.2296 -758.0742 482.1001 -754.1406 480.9375 C-752.0161 480.3033 -749.9013 479.6356 -747.7969 478.9375 C-742.2376 477.1113 -737.0086 475.785 -731.1875 475.125 C-724.2426 474.2607 -718.3235 472.0785 -711.875 469.5117 C-707.4215 467.7406 -702.8757 466.367 -698.2852 464.9961 C-692.1444 463.1342 -686.0746 461.0651 -680 459 C-679.1002 458.7061 -678.2005 458.4122 -677.2734 458.1094 C-672.1302 456.3578 -667.2989 454.2032 -662.4277 451.8145 C-652.8874 447.1402 -643.4053 443.6491 -633.2207 440.6631 C-627.43 438.934 -621.7201 436.947 -616 435 C-615.108 434.7087 -614.2159 434.4173 -613.2969 434.1172 C-608.9838 432.6486 -604.8581 430.9604 -600.7656 428.9609 C-600.3739 428.77 -600.3739 428.77 -598.3916 427.8037 C-596.8766 427.057 -595.3673 426.2987 -593.8662 425.5244 C-589.5097 423.3661 -585.2603 421.7759 -580.5561 420.5336 C-564.1964 416.0017 -549.1975 407.62 -534.0995 400.0363 C-530.7006 398.3313 -527.2972 396.6351 -523.8939 394.9389 C-515.8547 390.9322 -507.8226 386.9115 -499.7952 382.8813 C-491.5647 378.7495 -483.3236 374.6395 -475.0768 370.5405 C-467.9459 366.9953 -460.8214 363.4375 -453.7018 359.8696 C-449.4717 357.7498 -445.2396 355.6343 -441.0015 353.5307 C-408.8612 337.5644 -408.8612 337.5644 -397.8792 328.321 C-393.3392 324.6612 -388.2909 322.3722 -383 320 C-373.9291 315.7131 -366.2261 310.8413 -358.3984 304.6094 C-354.749 301.7232 -350.8498 299.654 -346.707 297.5547 C-342.7885 295.3042 -339.3569 292.4819 -335.8352 289.6714 C-331.7028 286.4201 -327.4753 284.0106 -322.8125 281.625 C-319.4728 279.6954 -316.5066 277.3996 -313.5 275 C-308.8323 271.2746 -304.125 268.343 -298.8125 265.625 C-294.8628 263.343 -291.3942 260.5153 -287.8425 257.6741 C-284.4756 255.0205 -281.1332 252.8721 -277.3125 250.9375 C-272.3411 248.3763 -268.5914 245.1809 -264.5273 241.3672 C-258.6132 235.8278 -252.6787 230.7022 -245.4375 227 C-237.0976 222.6822 -231.0008 216.031 -224.5 209.375 C-219.0001 203.8365 -213.2851 199.2478 -206.3555 195.6128 C-197.195 190.7676 -190.6495 184.2472 -183.4922 176.875 C-182.2343 175.6001 -180.975 174.3265 -179.7144 173.0542 C-176.4229 169.7269 -173.1454 166.3861 -169.8723 163.0408 C-164.6316 157.686 -159.3762 152.3459 -154.1081 147.0181 C-152.2876 145.1711 -150.4775 143.3144 -148.6682 141.4565 C-140.9763 133.6169 -133.2839 127.0121 -123.3867 122.0312 C-115.4622 117.479 -109.3039 111.0889 -102.9172 104.624 C-100.8246 102.5122 -98.7044 100.4314 -96.5801 98.3516 C-89.1901 91.0059 -83.0999 83.8976 -78.1941 74.6777 C-73.2135 65.8245 -65.8939 58.6246 -58.6945 51.5747 C-57.174 50.0851 -55.6609 48.5883 -54.1493 47.0896 C-49.8574 42.8369 -45.5526 38.5974 -41.2446 34.3611 C-38.5899 31.7495 -35.9429 29.1304 -33.3001 26.5068 C-32.3049 25.522 -31.3068 24.5402 -30.3055 23.5616 C-24.4596 17.8478 -19.3418 12.0956 -14.7616 5.3124 C-10.7244 0.0129 -6.51 -1.9653 0 0 Z " fill="#1A223E" transform="translate(3334,227)"/>
<path d="M0 0 C3.4517 2.3617 4.5196 4.8465 5.5927 8.8263 C6.4314 13.3024 6.2944 17.8368 6.2905 22.3762 C6.2939 22.9393 6.2939 22.9393 6.3109 25.7887 C6.3298 29.5011 6.3338 33.2133 6.3359 36.9258 C6.3424 39.515 6.3491 42.1042 6.3561 44.6934 C6.3681 50.1178 6.3719 55.5421 6.3706 60.9666 C6.3694 67.2156 6.3905 73.4643 6.4221 79.7133 C6.4515 85.7484 6.4586 91.7833 6.4574 97.8185 C6.4597 100.3753 6.4686 102.932 6.4841 105.4887 C6.5037 109.0713 6.4979 112.653 6.4858 116.2356 C6.4971 117.2827 6.5083 118.3298 6.5199 119.4086 C6.4547 127.0929 5.2044 134.4769 -0.1211 140.332 C-9.6381 146.4146 -19.8752 149.7546 -30.6367 152.9766 C-34.1743 154.053 -37.6806 155.2023 -41.1875 156.375 C-41.8083 156.5811 -42.429 156.7872 -43.0686 156.9995 C-46.5006 158.1434 -49.9158 159.3235 -53.3203 160.5469 C-61.6617 163.4999 -69.6172 165.5787 -78.3789 166.8191 C-85.7463 167.9437 -92.283 170.512 -99.1611 173.2876 C-102.9887 174.7704 -106.9258 175.8999 -110.8594 177.0625 C-112.9839 177.6967 -115.0987 178.3644 -117.2031 179.0625 C-122.7953 180.8996 -128.0858 182.2387 -133.9375 182.9375 C-140.4282 183.737 -145.9777 185.5417 -152.0391 187.8789 C-156.4819 189.5611 -160.1063 190.1122 -164.8877 190.2903 C-173.4312 190.6138 -180.6408 191.8451 -188.6133 195.0508 C-197.3555 198.235 -205.6366 198.521 -214.8909 198.5845 C-222.9222 198.6988 -229.3482 200.3353 -236.8656 203.0255 C-244.8768 205.7294 -251.9659 206.5639 -260.3867 206.5039 C-261.6098 206.5133 -262.8328 206.5227 -264.093 206.5325 C-267.958 206.5609 -271.8224 206.5642 -275.6875 206.5625 C-279.5632 206.5661 -283.4385 206.5758 -287.3142 206.6033 C-289.7127 206.6199 -292.1114 206.623 -294.5099 206.6102 C-302.6407 206.6612 -309.1509 208.1709 -316.7199 211.026 C-326.027 214.2806 -334.7025 214.5636 -344.4133 214.5017 C-346.1264 214.5055 -347.8394 214.511 -349.5525 214.5181 C-354.1659 214.5319 -358.7789 214.5209 -363.3923 214.5044 C-368.2372 214.4904 -373.082 214.497 -377.9269 214.5005 C-386.0545 214.5032 -394.1818 214.4898 -402.3093 214.4666 C-411.6929 214.4399 -421.0763 214.4382 -430.4599 214.4499 C-439.5117 214.4607 -448.5635 214.4545 -457.6153 214.4404 C-461.4576 214.4346 -465.2999 214.4347 -469.1422 214.4395 C-473.6658 214.4442 -478.1892 214.4341 -482.7127 214.4125 C-484.3687 214.4069 -486.0247 214.4064 -487.6806 214.4114 C-506.4454 214.461 -506.4454 214.461 -512.375 208.6875 C-516.4511 201.9463 -516.307 195.5476 -516.3008 187.8828 C-516.3051 186.7117 -516.3094 185.5406 -516.3138 184.334 C-516.3195 181.8612 -516.32 179.3883 -516.3157 176.9155 C-516.3125 173.1452 -516.336 169.3757 -516.3613 165.6055 C-516.3636 163.1979 -516.3643 160.7904 -516.3633 158.3828 C-516.3725 157.2617 -516.3817 156.1407 -516.3912 154.9856 C-516.3483 147.6729 -516.0472 141.1296 -510.6875 135.625 C-505.4732 132.4722 -500.805 131.7512 -494.7656 131.6914 C-493.3724 131.6662 -491.9792 131.6408 -490.5859 131.6152 C-488.4229 131.5866 -486.2599 131.5626 -484.0967 131.5437 C-475.611 131.4554 -468.0371 130.9864 -460 128 C-449.9604 124.3139 -440.8727 123.4291 -430.3125 123.4375 C-421.1269 123.422 -412.6987 123.3721 -404 120 C-395.8504 117.1353 -388.6784 115.671 -380.0964 115.3562 C-374.2673 115.1112 -369.437 114.005 -364 112 C-355.8811 109.0527 -348.6593 107.6703 -340.0964 107.3562 C-334.2673 107.1112 -329.437 106.005 -324 104 C-315.8811 101.0527 -308.6593 99.6703 -300.0964 99.3562 C-294.261 99.1109 -289.4457 97.9898 -284 96 C-277.4041 93.767 -271.1235 91.9062 -264.1875 91.125 C-257.2457 90.2611 -251.3288 88.0803 -244.8828 85.5156 C-240.3788 83.7247 -235.7874 82.3109 -231.1406 80.9375 C-229.0161 80.3033 -226.9013 79.6356 -224.7969 78.9375 C-219.2376 77.1113 -214.0086 75.785 -208.1875 75.125 C-201.2426 74.2607 -195.3235 72.0785 -188.875 69.5117 C-184.4215 67.7406 -179.8757 66.367 -175.2852 64.9961 C-169.1444 63.1342 -163.0746 61.0651 -157 59 C-156.1002 58.7061 -155.2005 58.4122 -154.2734 58.1094 C-149.1302 56.3578 -144.2989 54.2032 -139.4277 51.8145 C-129.8874 47.1402 -120.4053 43.6491 -110.2207 40.6631 C-106.7897 39.6386 -103.3946 38.5136 -100 37.375 C-99.4534 37.1932 -99.4534 37.1932 -96.6875 36.2734 C-95.4706 35.8532 -94.2537 35.433 -93 35 C-92.2263 34.7481 -91.4526 34.4961 -90.6555 34.2366 C-82.9729 31.6231 -75.9226 28.0022 -68.751 24.26 C-57.8684 18.6038 -47.2728 13.6214 -35.4351 10.2522 C-27.9657 8.1129 -21.178 5.0675 -14.2383 1.6016 C-9.1894 -0.8955 -5.4679 -1.4029 0 0 Z " fill="#1A223E" transform="translate(3027,955)"/>
<path d="M0 0 C0.6133 -0.0032 0.6133 -0.0032 3.717 -0.0195 C5.0699 -0.0166 6.4228 -0.0135 7.7757 -0.0102 C9.2194 -0.0139 10.6631 -0.0185 12.1068 -0.0239 C16.0702 -0.0361 20.0334 -0.0359 23.9967 -0.0335 C28.273 -0.0331 32.5493 -0.0441 36.8255 -0.0536 C45.2031 -0.0702 53.5807 -0.0757 61.9584 -0.0768 C68.7707 -0.0778 75.583 -0.0819 82.3953 -0.0882 C101.7175 -0.1059 121.0396 -0.1151 140.3618 -0.1136 C141.4034 -0.1135 142.445 -0.1134 143.5182 -0.1133 C144.5611 -0.1133 145.604 -0.1132 146.6785 -0.1131 C163.5697 -0.1123 180.4607 -0.1314 197.3519 -0.1596 C214.7035 -0.1884 232.055 -0.2022 249.4066 -0.2004 C259.1449 -0.1998 268.8832 -0.2052 278.6215 -0.2268 C286.9155 -0.245 295.2094 -0.2493 303.5035 -0.2358 C307.732 -0.2292 311.9602 -0.2291 316.1886 -0.2465 C320.0671 -0.2623 323.9451 -0.2593 327.8236 -0.2419 C329.2193 -0.2388 330.6151 -0.2424 332.0108 -0.2536 C341.3199 -0.3234 349.0775 1.0677 357.8163 4.2573 C365.5838 6.9601 372.3417 7.6861 380.5746 7.642 C381.8117 7.6474 383.0488 7.6528 384.3233 7.6583 C386.9938 7.6681 389.6637 7.6726 392.3342 7.668 C396.5631 7.6611 400.7918 7.6771 405.0206 7.6964 C414.7565 7.7373 424.4923 7.7487 434.2281 7.7599 C443.1635 7.7704 452.0988 7.7873 461.0341 7.828 C465.2318 7.8463 469.4292 7.8503 473.627 7.843 C476.857 7.8412 480.0869 7.8584 483.3168 7.8725 C483.893 7.8694 483.893 7.8694 486.809 7.8539 C494.1275 7.9098 500.6818 8.2052 506.1913 13.5698 C509.9608 19.804 510.1239 25.5389 510.1171 32.6245 C510.1193 33.1212 510.1193 33.1212 510.1301 35.6352 C510.1358 37.7314 510.1364 39.8276 510.132 41.9238 C510.1288 45.1147 510.1523 48.3047 510.1777 51.4956 C510.1799 53.5385 510.1806 55.5815 510.1796 57.6245 C510.1888 58.5705 510.198 59.5166 510.2075 60.4914 C510.1602 67.3396 509.4798 73.4458 504.5663 78.6323 C497.9905 82.518 492.1162 82.8258 484.8163 81.2573 C481.1678 80.0822 477.5922 78.7913 474.0155 77.4135 C468.8271 75.5383 464.2668 75.1308 458.7538 75.1154 C458.4079 75.1137 458.4079 75.1137 456.6573 75.1049 C455.1601 75.0976 453.6629 75.0922 452.1657 75.0886 C449.7841 75.0814 447.4027 75.0657 445.0212 75.0473 C438.2513 74.995 431.4815 74.9469 424.7113 74.9313 C420.5621 74.9212 416.4134 74.8916 412.2643 74.85 C410.6954 74.8378 409.1263 74.8326 407.5573 74.8348 C396.7066 74.8466 387.5866 73.1774 377.3728 69.339 C370.1903 66.8557 363.1452 66.845 355.6371 66.8771 C353.2759 66.8864 350.9155 66.8759 348.5543 66.8605 C341.8485 66.8208 335.1427 66.8192 328.4367 66.8215 C324.3142 66.8215 320.192 66.8021 316.0696 66.7721 C313.767 66.7615 311.4653 66.7734 309.1627 66.786 C299.1646 66.7619 290.744 64.8608 281.3721 61.3387 C274.1898 58.8556 267.1449 58.845 259.6371 58.8771 C257.2759 58.8864 254.9155 58.8759 252.5543 58.8605 C245.8485 58.8208 239.1427 58.8192 232.4367 58.8215 C228.3142 58.8215 224.192 58.8021 220.0696 58.7721 C217.767 58.7615 215.4653 58.7734 213.1627 58.786 C203.1646 58.7619 194.744 56.8608 185.3721 53.3387 C178.1898 50.8556 171.1449 50.845 163.6371 50.8771 C161.2759 50.8864 158.9155 50.8759 156.5543 50.8605 C149.8485 50.8208 143.1427 50.8192 136.4367 50.8215 C132.3142 50.8215 128.192 50.8021 124.0696 50.7721 C121.767 50.7615 119.4653 50.7734 117.1627 50.786 C107.1646 50.7619 98.744 48.8608 89.3721 45.3387 C82.1898 42.8556 75.1449 42.845 67.6371 42.8771 C65.2759 42.8864 62.9155 42.8759 60.5543 42.8605 C53.8485 42.8208 47.1427 42.8192 40.4367 42.8215 C36.3142 42.8215 32.192 42.8021 28.0696 42.7721 C25.767 42.7615 23.4653 42.7734 21.1627 42.786 C7.6755 42.7516 -4.5402 39.9823 -15.1837 31.2573 C-19.2293 26.7998 -20.4294 21.1451 -20.1837 15.2573 C-19.3438 10.6268 -18.1316 7.2564 -14.8712 3.8198 C-9.9938 0.9841 -5.6106 0.0075 0 0 Z " fill="#1A223E" transform="translate(1659.1836709976196,1094.7427310943604)"/>
<path d="M0 0 C1.7439 -0.0027 3.4878 -0.0066 5.2317 -0.0116 C8.8659 -0.0175 12.4997 -0.009 16.1338 0.0098 C20.7566 0.0326 25.3785 0.0194 30.0012 -0.0045 C33.5961 -0.0191 37.1908 -0.0143 40.7857 -0.004 C42.4887 -0.0014 44.1917 -0.0045 45.8947 -0.0139 C57.1557 -0.0626 66.2014 1.443 76.8606 5.3221 C83.5712 7.5716 89.6809 7.9507 96.7239 7.9001 C97.3043 7.902 97.3043 7.902 100.2413 7.9116 C102.7463 7.918 105.2512 7.9177 107.7562 7.9114 C111.7302 7.9022 115.704 7.912 119.678 7.928 C129.5476 7.964 139.4171 7.9704 149.2867 7.9679 C156.964 7.9662 164.6409 7.9735 172.3181 8.0079 C176.8865 8.0272 181.4544 8.0173 186.0228 8.0025 C188.4362 8.0115 190.8496 8.0215 193.2629 8.033 C193.7974 8.0281 193.7974 8.0281 196.5023 8.0034 C208.6738 8.1175 220.2389 11.7038 229.6875 19.5312 C234.0022 24.7792 234.8121 30.157 234.8152 36.7512 C234.8182 38.0396 234.8212 39.328 234.8243 40.6555 C234.8226 42.0913 234.8208 43.5272 234.8189 44.963 C234.8206 46.4899 234.8227 48.0168 234.8251 49.5437 C234.8307 53.7646 234.83 57.9855 234.8284 62.2064 C234.8276 66.7889 234.8327 71.3715 234.8369 75.9541 C234.8445 85.0543 234.8467 94.1545 234.8473 103.2547 C234.8482 114.1501 234.8549 125.0456 234.8616 135.941 C234.8777 162.2768 234.8836 188.6126 234.8884 214.9484 C234.8907 227.4013 234.8943 239.8543 234.8981 252.3073 C234.9107 294.2485 234.9215 336.1897 234.9249 378.131 C234.9251 380.1359 234.9252 382.1407 234.9254 384.1456 C234.9257 388.1665 234.9261 392.1873 234.9264 396.2082 C234.9268 400.9157 234.9272 405.6232 234.9276 410.3308 C234.9277 411.6781 234.9278 413.0255 234.9279 414.3728 C234.9315 457.6516 234.9465 500.9305 234.9698 544.2093 C234.9948 590.6148 235.0092 637.0203 235.0104 683.4258 C235.0106 688.4429 235.0108 693.4601 235.0111 698.4773 C235.0111 699.7127 235.0112 700.9481 235.0112 702.2209 C235.0124 722.1287 235.0234 742.0365 235.038 761.9443 C235.0523 781.9419 235.0556 801.9395 235.0475 821.9371 C235.0431 833.8264 235.047 845.7157 235.0628 857.6051 C235.0725 865.5403 235.0714 873.4754 235.0613 881.4106 C235.0559 885.9362 235.0553 890.4617 235.0678 894.9873 C235.0791 899.1031 235.0767 903.2187 235.0632 907.3345 C235.0607 908.8154 235.0633 910.2963 235.0716 911.7772 C235.1608 928.9641 235.1608 928.9641 229.375 934.9062 C223.6476 938.3693 218.5133 938.8215 212.0067 938.7857 C211.1411 938.7889 210.2755 938.7921 209.3837 938.7954 C206.4751 938.8038 203.5668 938.7978 200.6582 938.7919 C198.5551 938.795 196.452 938.7989 194.3489 938.8035 C188.563 938.8139 182.7773 938.8116 176.9915 938.8074 C170.7541 938.8049 164.5168 938.8139 158.2795 938.8214 C146.0574 938.8342 133.8353 938.8359 121.6132 938.8336 C111.6811 938.8318 101.749 938.8335 91.8169 938.8378 C90.3903 938.8384 88.9638 938.839 87.5372 938.8396 C85.3875 938.8405 83.2378 938.8414 81.0882 938.8424 C61.0994 938.8508 41.1107 938.8551 21.122 938.8509 C20.3683 938.8508 19.6147 938.8506 18.8382 938.8505 C15.0182 938.8497 11.1983 938.8488 7.3784 938.848 C6.6198 938.8478 5.8611 938.8476 5.0795 938.8474 C3.5453 938.8471 2.0111 938.8467 0.4769 938.8464 C-23.3964 938.841 -47.2697 938.849 -71.1431 938.8674 C-97.9611 938.8881 -124.779 938.8989 -151.597 938.8949 C-154.4561 938.8945 -157.3152 938.8941 -160.1743 938.8938 C-160.8783 938.8937 -161.5823 938.8936 -162.3076 938.8935 C-172.9384 938.8923 -183.5693 938.899 -194.2001 938.9096 C-206.2895 938.9216 -218.3788 938.9229 -230.4682 938.9108 C-236.6382 938.9049 -242.8081 938.9038 -248.9781 938.9158 C-254.6246 938.9266 -260.271 938.9236 -265.9175 938.9095 C-267.9618 938.9069 -270.0062 938.9093 -272.0505 938.9173 C-274.8273 938.9273 -277.6033 938.919 -280.38 938.906 C-281.1755 938.9133 -281.971 938.9206 -282.7906 938.9281 C-289.1545 938.8664 -294.9651 937.8168 -299.6875 933.2188 C-302.6606 928.3018 -303.5625 923.8659 -303.5655 918.1625 C-303.571 916.8919 -303.5765 915.6213 -303.5822 914.3121 C-303.5782 912.9068 -303.5741 911.5014 -303.5698 910.096 C-303.5725 908.5933 -303.576 907.0905 -303.5804 905.5878 C-303.5899 901.4433 -303.5868 897.2988 -303.5818 893.1543 C-303.5786 888.651 -303.5868 884.1477 -303.5937 879.6444 C-303.604 871.7466 -303.6068 863.8489 -303.6047 855.9511 C-303.6017 844.2067 -303.61 832.4624 -303.6205 820.718 C-303.6399 798.5236 -303.6455 776.3291 -303.6466 754.1347 C-303.6475 736.9972 -303.6516 719.8598 -303.658 702.7223 C-303.6598 697.7929 -303.6616 692.8635 -303.6634 687.9341 C-303.6638 686.7087 -303.6642 685.4833 -303.6647 684.2208 C-303.677 649.7426 -303.6849 615.2645 -303.684 580.7863 C-303.684 580.1361 -303.684 580.1361 -303.6839 576.8455 C-303.6838 570.2539 -303.6836 563.6624 -303.6833 557.0708 C-303.6833 555.7616 -303.6833 554.4525 -303.6832 553.1036 C-303.6831 550.4562 -303.6831 547.8088 -303.683 545.1613 C-303.6818 503.9678 -303.6968 462.7743 -303.7241 421.5808 C-303.7548 375.3213 -303.7721 329.0617 -303.7702 282.8022 C-303.77 277.8712 -303.7699 272.9402 -303.7699 268.0093 C-303.7699 266.7951 -303.7698 265.5809 -303.7698 264.33 C-303.7698 244.7743 -303.7825 225.2187 -303.7998 205.6631 C-303.8167 186.0152 -303.8187 166.3674 -303.8055 146.7194 C-303.7981 135.0418 -303.8018 123.3642 -303.8214 111.6865 C-303.8334 103.8887 -303.8309 96.0909 -303.8165 88.2931 C-303.8087 83.8484 -303.8072 79.4039 -303.8234 74.9592 C-303.838 70.9133 -303.834 66.8678 -303.8155 62.8219 C-303.8121 61.3697 -303.8153 59.9174 -303.8261 58.4653 C-303.8944 48.6343 -303.2173 39.6292 -297.0625 31.5938 C-290.0034 26.2994 -283.8324 24.4391 -275.0547 24.3203 C-273.6094 24.2922 -272.1641 24.2636 -270.7188 24.2344 C-268.4613 24.1934 -266.204 24.1564 -263.9463 24.1299 C-254.1931 24.0054 -245.8056 23.1723 -236.6877 19.4636 C-225.3044 15.2883 -213.5998 15.9626 -201.625 15.9688 C-198.3199 15.9651 -195.0153 15.9554 -191.7103 15.928 C-189.6678 15.9114 -187.6253 15.9082 -185.5828 15.921 C-178.0357 15.8656 -171.6751 14.3186 -164.6991 11.4606 C-154.1351 7.5196 -143.4568 7.9763 -132.3165 8.0148 C-128.6117 8.0276 -124.9077 8.0161 -121.2029 7.9988 C-114.6753 7.9722 -108.1479 7.9665 -101.6202 7.9679 C-91.1639 7.9701 -80.7078 7.9559 -70.2516 7.9123 C-66.6145 7.9025 -62.9778 7.9112 -59.3407 7.921 C-57.0986 7.9149 -54.8565 7.9079 -52.6145 7.9001 C-51.6142 7.9079 -50.614 7.9156 -49.5834 7.9235 C-41.8031 7.8679 -35.3985 6.0096 -28.136 3.382 C-18.7198 0.007 -9.8655 -0.0545 0 0 Z " fill="#1A223E" transform="translate(782.3125,1286.46875)"/>
<path d="M0 0 C5.5057 2.0946 10.6775 3.2896 16.5 4.125 C23.6273 5.152 29.8604 6.8889 36.582 9.5391 C41.2297 11.2687 45.3697 11.7119 50.324 11.8647 C58.9549 12.1533 66.3364 13.6883 74.5 16.625 C79.9155 18.4384 85.078 19.7602 90.75 20.5 C96.9917 21.3653 102.5418 23.2375 108.4062 25.5039 C113.1349 27.2174 117.2961 27.7097 122.324 27.8647 C130.9549 28.1533 138.3364 29.6883 146.5 32.625 C151.9155 34.4384 157.078 35.7602 162.75 36.5 C168.9917 37.3653 174.5418 39.2375 180.4062 41.5039 C185.1349 43.2174 189.2961 43.7097 194.324 43.8647 C202.9549 44.1533 210.3364 45.6883 218.5 48.625 C223.9155 50.4384 229.078 51.7602 234.75 52.5 C240.9917 53.3653 246.5418 55.2375 252.4062 57.5039 C257.1349 59.2174 261.2961 59.7097 266.324 59.8647 C274.9549 60.1533 282.3364 61.6883 290.5 64.625 C295.9155 66.4384 301.078 67.7602 306.75 68.5 C312.9917 69.3653 318.5418 71.2375 324.4062 73.5039 C329.1349 75.2174 333.2961 75.7097 338.324 75.8647 C346.9549 76.1533 354.3364 77.6883 362.5 80.625 C367.9155 82.4384 373.078 83.7602 378.75 84.5 C384.9917 85.3653 390.5418 87.2375 396.4062 89.5039 C401.1349 91.2174 405.2961 91.7097 410.324 91.8647 C418.9549 92.1533 426.3364 93.6883 434.5 96.625 C439.9155 98.4384 445.078 99.7602 450.75 100.5 C455.5557 101.1681 459.7225 102.3231 464.25 104.0625 C470.3381 106.3967 476.2015 107.6387 482.6396 108.4607 C487.5033 109.1571 490.6531 110.5832 494.5 113.625 C497.7319 118.0828 498.6243 121.9293 498.6277 127.3574 C498.6307 128.3132 498.6337 129.2691 498.6368 130.2539 C498.635 131.3032 498.6333 132.3525 498.6314 133.4335 C498.6325 133.9935 498.6325 133.9935 498.6376 136.8272 C498.6433 140.6129 498.6419 144.3986 498.6404 148.1843 C498.6425 150.9126 498.646 153.641 498.6494 156.3694 C498.657 163.1026 498.6592 169.8358 498.6598 176.569 C498.6607 184.6315 498.6674 192.6939 498.6741 200.7564 C498.6902 220.244 498.6961 239.7315 498.7009 259.2191 C498.7032 268.4351 498.7068 277.6511 498.7106 286.8672 C498.7234 318.4052 498.7341 349.9432 498.7376 381.4813 C498.7378 383.4615 498.738 385.4417 498.7382 387.4219 C498.7385 389.4069 498.7387 391.392 498.7389 393.377 C498.7393 397.3594 498.7398 401.3418 498.7402 405.3242 C498.7403 406.3116 498.7405 407.299 498.7406 408.3164 C498.7442 440.3419 498.7601 472.3675 498.7834 504.393 C498.808 538.2404 498.8217 572.0878 498.8229 605.9352 C498.8231 609.6492 498.8233 613.3632 498.8236 617.0772 C498.8236 617.9918 498.8237 618.9063 498.8237 619.8485 C498.8249 634.579 498.8359 649.3095 498.8505 664.04 C498.8648 678.8398 498.8681 693.6396 498.86 708.4394 C498.8556 717.2361 498.8594 726.0326 498.8753 734.8293 C498.885 740.7029 498.8838 746.5765 498.8738 752.4502 C498.8684 755.7984 498.8694 759.1463 498.8803 762.4946 C498.8913 766.1009 498.884 769.7068 498.8719 773.3131 C498.8795 774.353 498.8871 775.3929 498.895 776.4644 C498.8442 783.4726 498.3078 789.7413 493.1875 795 C487.5832 798.3887 482.3793 798.9154 475.9441 798.8795 C475.092 798.8827 474.24 798.8859 473.362 798.8892 C470.4994 798.8975 467.6371 798.8916 464.7744 798.8857 C462.7043 798.8887 460.6342 798.8926 458.5641 798.8973 C452.8695 798.9076 447.1749 798.9054 441.4803 798.9011 C435.3411 798.8986 429.202 798.9076 423.0628 798.9151 C411.0332 798.9279 399.0036 798.9297 386.974 798.9273 C377.1983 798.9255 367.4226 798.9273 357.6469 798.9316 C356.2427 798.9322 354.8386 798.9328 353.4344 798.9334 C351.3185 798.9343 349.2027 798.9352 347.0868 798.9361 C327.4124 798.9445 307.7381 798.9489 288.0637 798.9447 C287.3219 798.9445 286.5801 798.9444 285.8158 798.9442 C282.056 798.9434 278.2963 798.9426 274.5365 798.9417 C273.7898 798.9415 273.0431 798.9414 272.2737 798.9412 C270.7637 798.9408 269.2537 798.9405 267.7436 798.9401 C244.2462 798.9348 220.7489 798.9427 197.2515 798.9612 C170.8554 798.9819 144.4593 798.9926 118.0632 798.9886 C115.2491 798.9882 112.4349 798.9878 109.6208 798.9875 C109.2743 798.9875 109.2743 798.9875 107.521 798.9872 C97.0576 798.9861 86.5942 798.9927 76.1308 799.0033 C64.2318 799.0154 52.3328 799.0167 40.4337 799.0045 C34.3609 798.9986 28.2882 798.9976 22.2154 799.0095 C16.6577 799.0203 11.1002 799.0173 5.5425 799.0033 C3.5304 799.0006 1.5184 799.003 -0.4937 799.011 C-3.2268 799.0211 -5.9593 799.0127 -8.6925 798.9997 C-9.4751 799.007 -10.2578 799.0143 -11.0641 799.0219 C-17.3929 798.9595 -23.1826 797.8814 -27.875 793.3125 C-30.6951 788.6484 -31.7498 784.3469 -31.7518 778.9261 C-31.7545 778.3657 -31.7545 778.3657 -31.7678 775.5294 C-31.7656 774.9176 -31.7656 774.9176 -31.7545 771.8212 C-31.7577 770.5099 -31.7609 769.1986 -31.7642 767.8475 C-31.7728 764.1977 -31.769 760.5479 -31.7631 756.8981 C-31.759 752.9311 -31.7664 748.9641 -31.7723 744.9971 C-31.7811 738.041 -31.7824 731.0849 -31.7788 724.1289 C-31.7735 713.785 -31.7796 703.4411 -31.7879 693.0972 C-31.8031 673.5499 -31.8048 654.0026 -31.8023 634.4552 C-31.8005 619.3629 -31.8023 604.2706 -31.8066 589.1784 C-31.8072 587.0117 -31.8078 584.845 -31.8084 582.6784 C-31.8093 579.4136 -31.8102 576.1488 -31.8111 572.884 C-31.8195 542.5212 -31.8239 512.1583 -31.8197 481.7955 C-31.8195 480.6504 -31.8194 479.5052 -31.8192 478.3254 C-31.8184 472.5211 -31.8176 466.7168 -31.8167 460.9126 C-31.8165 459.7598 -31.8164 458.607 -31.8162 457.4192 C-31.8158 455.088 -31.8155 452.7568 -31.8151 450.4256 C-31.8098 414.1462 -31.8177 377.8668 -31.8362 341.5874 C-31.8569 300.8467 -31.8676 260.1059 -31.8636 219.3652 C-31.8632 215.0232 -31.8628 210.6812 -31.8625 206.3393 C-31.8625 205.8047 -31.8625 205.8047 -31.8622 203.0994 C-31.8611 186.9427 -31.8677 170.7859 -31.8783 154.6291 C-31.8904 136.2596 -31.892 117.8901 -31.8795 99.5205 C-31.8729 89.2353 -31.8746 78.9501 -31.8881 68.6649 C-31.8963 61.799 -31.8937 54.9332 -31.8821 48.0674 C-31.8759 44.1525 -31.8744 40.2379 -31.886 36.323 C-31.8984 32.1087 -31.8878 27.8948 -31.8747 23.6805 C-31.882 22.4614 -31.8893 21.2424 -31.8969 19.9864 C-31.8489 12.5419 -31.625 5.9237 -26.25 0.25 C-17.2858 -5.047 -9.2828 -3.5521 0 0 Z " fill="#1A223E" transform="translate(1670.5,1426.375)"/>
<path d="M0 0 C3.9645 3.0568 4.7091 5.7838 5.5625 10.625 C7.4981 21.3248 10.9262 30.531 15.8232 40.2229 C16.7472 42.0569 17.6515 43.8998 18.5547 45.7441 C22.0448 52.7725 25.8323 59.0772 31 65 C31.2545 65.2934 31.2545 65.2934 32.5425 66.7781 C40.0301 75.1218 47.8948 81.0502 58 86 C58.9831 86.4895 59.9661 86.979 60.979 87.4834 C66.4787 90.2141 71.9941 92.9129 77.5352 95.5586 C78.4672 96.0052 79.3993 96.4518 80.3596 96.9119 C84.9072 98.786 89.1104 99.1251 94.0009 99.126 C95.2148 99.1287 96.4287 99.1313 97.6794 99.1341 C99.0258 99.132 100.3723 99.1298 101.7187 99.1275 C103.1555 99.1287 104.5922 99.1304 106.029 99.1325 C109.995 99.1369 113.961 99.1351 117.927 99.1324 C122.235 99.1305 126.5431 99.1345 130.8512 99.1377 C138.4077 99.1426 145.9642 99.1439 153.5207 99.1427 C164.7576 99.1411 175.9945 99.1453 187.2315 99.1508 C204.9748 99.1595 222.7181 99.1648 240.4615 99.168 C268.6276 99.1732 296.7937 99.1886 324.9598 99.2076 C330.9517 99.2116 336.9435 99.2155 342.9354 99.2195 C344.1299 99.2203 345.3244 99.221 346.5551 99.2218 C348.9757 99.2234 351.3962 99.225 353.8168 99.2266 C356.2464 99.2282 358.6759 99.2298 361.1055 99.2314 C389.766 99.2502 418.4264 99.2673 447.0869 99.283 C448.3412 99.2836 449.5955 99.2843 450.8879 99.285 C491.5676 99.3073 532.2473 99.3191 572.927 99.3266 C614.7372 99.3344 656.5473 99.3554 698.3575 99.3922 C704.2603 99.3973 710.1631 99.4023 716.066 99.4072 C717.2277 99.4082 718.3895 99.4092 719.5864 99.4102 C738.2969 99.4253 757.0073 99.4262 775.7178 99.4216 C794.5178 99.4172 813.3178 99.4271 832.1178 99.4517 C843.2912 99.4658 854.4644 99.4688 865.6377 99.4558 C873.0994 99.4483 880.561 99.4552 888.0227 99.4738 C892.2755 99.484 896.5279 99.4879 900.7807 99.4742 C904.6524 99.4618 908.5237 99.4679 912.3954 99.4885 C914.438 99.4947 916.4805 99.4814 918.523 99.4671 C927.5546 99.5419 935.0513 101.0348 942.8555 105.7109 C945.9469 109.0108 948.0724 112.7138 950.3125 116.625 C953.2315 121.7019 956.2228 126.367 959.9961 130.8594 C964.252 136.0526 966.9602 141.5517 969.75 147.625 C974.1353 156.8068 979.0712 164.663 985.3906 172.6016 C988.2887 176.266 990.3636 180.1824 992.4688 184.3438 C994.2414 187.4187 996.3559 189.9588 998.625 192.6875 C1003.441 198.5658 1006.6146 204.9745 1009.875 211.8125 C1014.2296 220.9319 1019.1124 228.7152 1025.3906 236.6016 C1028.2768 240.251 1030.346 244.1502 1032.4453 248.293 C1034.6958 252.2115 1037.5181 255.6431 1040.3286 259.1648 C1043.5921 263.3127 1046.0072 267.5561 1048.3984 272.2383 C1050.2024 275.349 1052.3252 277.9241 1054.625 280.6875 C1059.4412 286.5655 1062.6146 292.9746 1065.875 299.8125 C1070.2296 308.9319 1075.1124 316.7152 1081.3906 324.6016 C1084.2887 328.266 1086.3636 332.1824 1088.4688 336.3438 C1090.2414 339.4187 1092.3559 341.9588 1094.625 344.6875 C1099.441 350.5658 1102.6146 356.9745 1105.875 363.8125 C1110.2296 372.9319 1115.1124 380.7152 1121.3906 388.6016 C1124.2768 392.251 1126.346 396.1502 1128.4453 400.293 C1130.6958 404.2115 1133.5181 407.6431 1136.3286 411.1648 C1139.5921 415.3127 1142.0072 419.5561 1144.3984 424.2383 C1146.2024 427.349 1148.3252 429.9241 1150.625 432.6875 C1155.4412 438.5655 1158.6146 444.9746 1161.875 451.8125 C1166.2296 460.9319 1171.1124 468.7152 1177.3906 476.6016 C1180.2887 480.266 1182.3636 484.1824 1184.4688 488.3438 C1186.2414 491.4187 1188.3559 493.9588 1190.625 496.6875 C1195.441 502.5658 1198.6146 508.9745 1201.875 515.8125 C1206.2296 524.9319 1211.1124 532.7152 1217.3906 540.6016 C1220.2768 544.251 1222.346 548.1502 1224.4453 552.293 C1226.6958 556.2115 1229.5181 559.6431 1232.3286 563.1648 C1235.5921 567.3127 1238.0072 571.5561 1240.3984 576.2383 C1242.2024 579.349 1244.3252 581.9241 1246.625 584.6875 C1251.4412 590.5655 1254.6146 596.9746 1257.875 603.8125 C1262.227 612.9263 1267.1073 620.7062 1273.3789 628.5898 C1276.3125 632.3 1278.491 636.2564 1280.6289 640.4688 C1282.6026 644.1126 1285.0172 647.388 1287.4844 650.7109 C1289.7879 654.19 1291.0464 656.8635 1290.875 661.0625 C1289.8328 664.5614 1288.9334 665.8385 1286 668 C1279.7644 670.3409 1273.8385 670.2802 1267.2323 670.253 C1266.043 670.2561 1264.8538 670.2591 1263.6285 670.2623 C1260.3201 670.2687 1257.0118 670.2662 1253.7034 670.26 C1250.0934 670.2554 1246.4835 670.2624 1242.8736 670.2679 C1236.5199 670.276 1230.1662 670.2767 1223.8125 670.2725 C1214.3007 670.2663 1204.7889 670.2716 1195.277 670.2791 C1179.0672 670.2916 1162.8574 670.2945 1146.6476 670.2922 C1130.2153 670.29 1113.7831 670.2921 1097.3508 670.2994 C1096.3138 670.2998 1095.2768 670.3003 1094.2083 670.3008 C1089.9849 670.3027 1085.7614 670.3046 1081.538 670.3065 C1037.451 670.3268 993.364 670.3329 949.2771 670.3341 C944.5297 670.3342 939.7824 670.3344 935.035 670.3345 C934.446 670.3345 934.446 670.3345 931.4653 670.3346 C905.3746 670.3354 879.2839 670.3398 853.1933 670.3448 C842.4542 670.3469 831.7151 670.3489 820.976 670.3509 C819.7895 670.3511 818.6029 670.3513 817.3804 670.3515 C749.3733 670.3642 681.3661 670.3724 613.3589 670.3715 C610.8131 670.3715 608.2673 670.3714 605.7215 670.3714 C594.2271 670.3713 582.7328 670.3711 571.2384 670.3709 C566.1126 670.3708 560.9868 670.3707 555.8611 670.3707 C553.2955 670.3706 550.73 670.3706 548.1644 670.3705 C467.0326 670.3692 385.9008 670.3838 304.769 670.4116 C284.3276 670.4186 263.8862 670.4256 243.4448 670.4321 C242.1861 670.4326 240.9275 670.433 239.6308 670.4334 C200.8485 670.4458 162.0662 670.4533 123.2838 670.4559 C122.0665 670.4559 120.8491 670.456 119.5949 670.4561 C92.8729 670.4578 66.1509 670.4583 39.4289 670.4578 C29.8675 670.4576 20.3062 670.4575 10.7449 670.4574 C8.3662 670.4574 5.9876 670.4574 3.6089 670.4573 C-34.3155 670.457 -72.2399 670.4684 -110.1643 670.4857 C-148.3553 670.5029 -186.5463 670.5073 -224.7373 670.4941 C-230.0123 670.4923 -235.2874 670.4906 -240.5624 670.489 C-241.5965 670.4887 -242.6305 670.4884 -243.6959 670.488 C-260.0829 670.4833 -276.4698 670.4921 -292.8567 670.5064 C-308.9623 670.5201 -325.0678 670.5197 -341.1733 670.504 C-350.6203 670.4952 -360.0672 670.4974 -369.5142 670.5157 C-375.7865 670.5268 -382.0587 670.5234 -388.331 670.5081 C-391.8878 670.4999 -395.4443 670.4979 -399.0011 670.5136 C-402.8276 670.5305 -406.6537 670.5162 -410.4802 670.4991 C-411.5688 670.5089 -412.6574 670.5187 -413.779 670.5288 C-421.7561 670.4544 -428.4946 668.5963 -436 666 C-437.8347 665.4448 -439.6716 664.8965 -441.5117 664.3594 C-443.2374 663.8242 -444.9627 663.2878 -446.6875 662.75 C-447.1171 662.6256 -447.1171 662.6256 -449.291 661.9961 C-462.6217 657.7632 -471.9037 646.4407 -481.5239 636.7917 C-483.7504 634.5621 -485.9899 632.3462 -488.2305 630.1309 C-489.6701 628.6935 -491.1089 627.2554 -492.5469 625.8164 C-493.2064 625.1661 -493.8659 624.5158 -494.5453 623.8458 C-501.6154 616.7057 -506.3935 609.4315 -509.125 599.75 C-509.3506 598.9933 -509.5762 598.2366 -509.8086 597.457 C-510.2749 595.8915 -510.7283 594.3221 -511.1687 592.7491 C-512 590 -512 590 -513.0031 587.4231 C-516.9064 576.8025 -516.5559 566.3964 -516.5012 555.2178 C-516.5051 553.0097 -516.5107 550.8015 -516.518 548.5933 C-516.5327 542.5496 -516.5226 536.5062 -516.5082 530.4625 C-516.4983 524.6066 -516.5071 518.7508 -516.5154 512.895 C-516.5325 500.1863 -516.527 487.4776 -516.512 474.7689 C-516.4989 463.6502 -516.4938 452.5316 -516.4963 441.4129 C-516.4964 441.0438 -516.4964 441.0438 -516.4968 439.1758 C-516.4975 436.1788 -516.4982 433.1819 -516.4989 430.1849 C-516.506 402.0915 -516.4905 373.9981 -516.4643 345.9047 C-516.4412 320.9494 -516.4358 295.9941 -516.446 271.0388 C-516.4486 264.6453 -516.4512 258.2518 -516.4536 251.8584 C-516.4539 251.0712 -516.4542 250.2841 -516.4545 249.4731 C-516.4622 228.6113 -516.4557 207.7494 -516.4449 186.8876 C-516.4438 184.6431 -516.4427 182.3985 -516.4415 180.154 C-516.4408 178.6651 -516.44 177.1761 -516.4392 175.6872 C-516.4336 164.5725 -516.4349 153.4578 -516.4395 142.3431 C-516.4446 129.7086 -516.4387 117.0742 -516.4186 104.4397 C-516.4087 97.9921 -516.4036 91.5447 -516.4114 85.0972 C-516.4185 79.1974 -516.4117 73.2979 -516.3938 67.3982 C-516.3898 65.2618 -516.3908 63.1255 -516.3974 60.9891 C-516.4055 58.0884 -516.3952 55.1884 -516.3803 52.2877 C-516.3871 51.4558 -516.3938 50.6238 -516.4007 49.7666 C-516.3416 43.8308 -515.5619 38.0569 -511.603 33.3332 C-508.7211 30.9364 -505.5966 30.7835 -502 31 C-500.0805 31.6196 -498.174 32.2801 -496.2767 32.9647 C-485.3512 36.168 -474.1781 35.5501 -462.8857 35.5017 C-460.3581 35.5055 -457.8304 35.511 -455.3027 35.5181 C-449.1797 35.5305 -443.057 35.5245 -436.934 35.5094 C-429.7916 35.4925 -422.6493 35.4958 -415.5069 35.4995 C-402.7591 35.5054 -390.0114 35.4913 -377.2637 35.4666 C-364.914 35.4426 -352.5645 35.4356 -340.2148 35.446 C-326.7372 35.4575 -313.2596 35.4594 -299.782 35.4449 C-298.3435 35.4434 -296.9051 35.4419 -295.4666 35.4404 C-295.1128 35.44 -295.1128 35.44 -293.3223 35.4381 C-288.3515 35.4334 -283.3807 35.4352 -278.4099 35.4395 C-271.7154 35.4449 -265.0211 35.4341 -258.3265 35.4125 C-255.8732 35.4069 -253.4198 35.4065 -250.9665 35.4114 C-247.6118 35.4174 -244.2577 35.4048 -240.903 35.3877 C-239.9378 35.3937 -238.9726 35.3997 -237.9782 35.4059 C-230.4336 35.3359 -224.0442 33.5728 -217.0476 30.8518 C-205.8938 26.5926 -194.0746 27.4314 -182.3125 27.4375 C-179.0074 27.4339 -175.7028 27.4242 -172.3978 27.3967 C-170.3553 27.3802 -168.3128 27.3769 -166.2703 27.3898 C-159.702 27.3416 -154.1748 26.2107 -148 24 C-137.9147 20.4189 -128.9025 19.4291 -118.3125 19.4375 C-100.6383 19.4077 -100.6383 19.4077 -92 16 C-82.2079 12.2288 -73.5789 11.4873 -63.1091 11.4155 C-56.2236 11.3175 -50.4762 10.3205 -44 8 C-43.4509 7.8189 -43.4509 7.8189 -40.6719 6.9023 C-39.7077 6.5839 -38.7434 6.2655 -37.75 5.9375 C-31.9411 4.1291 -26.2541 3.2429 -20.2266 2.5078 C-17.3109 2.0489 -14.8709 1.3599 -12.125 0.3125 C-7.6339 -1.3267 -4.6493 -1.182 0 0 Z " fill="#1A223E" transform="translate(3027,1555)"/>
</svg>